<svg width="596" height="610" viewBox="0 0 596 610" fill="none" xmlns="http://www.w3.org/2000/svg">
<path fill-rule="evenodd" clip-rule="evenodd" d="M542.21 510.633C542.398 510.706 542.552 510.893 542.552 511.049C542.552 511.461 543.587 512.632 544.25 512.969C545.158 513.43 546.689 513.563 547.957 513.291C549.112 513.043 549.966 512.386 550.967 510.977C551.273 510.545 551.357 510.535 552.569 510.787C553.957 511.077 554.1 511.242 553.898 512.321C553.549 514.181 551.603 515.967 549.154 516.673C547.396 517.179 544.587 517.031 543.033 516.35C541.14 515.52 539.315 513.146 539.315 511.513C539.315 511.196 539.692 511.037 541.365 510.652C541.602 510.597 541.813 510.541 541.833 510.527C541.853 510.513 542.023 510.561 542.21 510.633ZM438.227 520.558C442.161 521.383 445.317 523.919 447.098 527.687C448.43 530.506 448.917 532.686 449.061 536.481C449.199 540.142 448.94 542.373 448.055 545.138C446.079 551.306 441.815 554.692 435.649 554.988C428.491 555.331 423.179 551.242 421.482 544.083C420.549 540.146 420.564 534.985 421.521 531.175C422.914 525.625 426.721 521.643 431.662 520.569C433.496 520.17 436.357 520.165 438.227 520.558ZM471.636 520.554C472.447 520.726 473.661 521.118 474.333 521.424C475.81 522.096 477.608 523.287 477.595 523.585C477.591 523.704 477.025 524.42 476.34 525.175L475.093 526.549L473.918 525.796C472.071 524.611 470.877 524.273 468.543 524.272C465.86 524.271 464.428 524.799 462.861 526.369C461.418 527.816 460.417 529.874 459.872 532.518C459.502 534.309 459.455 535.165 459.548 538.398C459.665 542.488 459.912 543.79 461.001 546.09C462.431 549.108 464.716 550.681 467.964 550.884C470.219 551.025 472.12 550.511 474.115 549.218C474.856 548.738 475.538 548.346 475.632 548.346C475.725 548.346 476.313 548.985 476.938 549.767C478.056 551.166 478.068 551.196 477.678 551.638C476.912 552.507 474.709 553.762 472.983 554.314C467.431 556.088 461.189 554.383 458.005 550.223C453.827 544.764 453.134 534.441 456.487 527.605C457.624 525.284 459.996 522.789 462.042 521.758C464.896 520.321 468.441 519.876 471.636 520.554ZM89.2203 527.802V534.722H91.4373H93.6543L96.1037 530.559C97.4508 528.27 99.2788 525.156 100.166 523.639L101.779 520.882H104.238C105.591 520.882 106.698 520.949 106.698 521.032C106.698 521.114 105.887 522.549 104.895 524.221C101.621 529.746 98.1328 535.688 97.8759 536.179C97.6083 536.691 97.4372 536.373 105.548 550.426C106.655 552.344 107.561 554.023 107.561 554.157C107.561 554.325 106.733 554.401 104.908 554.401H102.254L99.5781 549.589C98.1059 546.943 96.1685 543.441 95.2724 541.807L93.6435 538.836L91.4319 538.833L89.2203 538.831V546.616V554.401H86.7389H84.2576V537.641V520.882H86.7389H89.2203V527.802ZM117.702 537.641V554.401H115.328H112.955V537.641V520.882H115.328H117.702V537.641ZM136.256 526.451C138.359 533.894 141.419 544.291 141.542 544.415C141.597 544.47 141.688 544.379 141.745 544.214C141.932 543.663 145.479 530.789 146.713 526.18C147.382 523.683 147.979 521.469 148.042 521.261C148.142 520.922 148.494 520.882 151.361 520.882H154.567L154.695 522.017C154.813 523.064 157.403 553.884 157.403 554.242C157.403 554.329 156.335 554.401 155.03 554.401H152.656L152.654 553.806C152.653 553.479 152.461 550.73 152.228 547.697C151.479 537.977 150.93 529.729 150.93 528.204C150.93 527.388 150.851 526.721 150.754 526.721C150.658 526.721 149.587 530.2 148.375 534.452C147.163 538.704 145.61 544.08 144.924 546.399L143.678 550.616H141.456H139.234L138.058 546.832C137.411 544.751 135.818 539.509 134.518 535.185C133.217 530.86 132.076 527.183 131.98 527.013C131.885 526.842 131.695 529.115 131.558 532.064C131.318 537.211 130.335 551.574 130.092 553.482L129.974 554.401H127.722C126.483 554.401 125.468 554.328 125.466 554.238C125.459 553.887 128.075 522.662 128.184 521.801L128.301 520.882H131.492H134.683L136.256 526.451ZM170.781 527.802V534.722H177.794H184.806V527.802V520.882H187.18H189.553V537.641V554.401H187.18H184.806V546.616V538.831H177.794H170.781V546.616V554.401H168.408H166.034V537.641V520.882H168.408H170.781V527.802ZM213.314 527.478C218.064 542.231 221.486 553.038 221.617 553.698L221.757 554.401H219.298H216.839L216.237 552.4C215.906 551.3 215.345 549.451 214.991 548.292L214.348 546.183L208.046 546.184L201.744 546.185L200.531 550.239L199.317 554.293L196.89 554.354C194.985 554.402 194.486 554.356 194.569 554.138C194.626 553.985 195.326 551.768 196.123 549.211C196.921 546.654 198.626 541.301 199.912 537.317C201.197 533.333 202.906 528.002 203.709 525.472L205.168 520.871L208.197 520.931L211.226 520.99L213.314 527.478ZM244.279 521.693C244.214 522.139 244.099 523.015 244.024 523.639L243.886 524.775H239.268H234.649V539.588V554.401H232.277H229.905L229.849 539.642L229.794 524.883L224.993 524.825L220.192 524.766V522.824V520.882H232.294H244.396L244.279 521.693ZM254.27 532.614C254.263 539.066 254.177 545.172 254.079 546.183C253.981 547.194 253.938 548.061 253.983 548.11C254.075 548.209 259.502 537.059 265.681 524.072L267.199 520.882H270.235H273.272V537.641V554.401H270.898H268.525V543.511C268.525 537.522 268.625 531.379 268.748 529.86C268.872 528.341 268.927 527.052 268.872 526.997C268.817 526.942 268.532 527.416 268.239 528.052C267.719 529.18 265.443 533.959 260.325 544.669C258.932 547.583 257.319 550.963 256.74 552.179L255.686 554.39L252.612 554.395L249.537 554.401V537.641V520.882H251.91H254.284L254.27 532.614ZM315.778 535.685V550.488L317.127 550.552L318.475 550.616V556.131V561.645L316.613 561.707L314.751 561.769L314.627 560.842C314.56 560.332 314.39 558.674 314.249 557.158L313.994 554.401H304.434H294.875L294.757 555.32C294.693 555.825 294.517 557.455 294.367 558.942L294.093 561.645L292.205 561.707L290.317 561.77V556.139V550.508H291.467C292.797 550.508 293.192 550.196 294.062 548.454C295.271 546.032 295.916 542.483 297.542 529.316C298.077 524.975 298.516 521.301 298.516 521.152C298.517 520.941 300.387 520.882 307.147 520.882H315.778V535.685ZM348.359 537.641V554.401H345.878H343.397V539.588V524.775H338.33H333.264L333.161 525.261C333.105 525.529 332.658 529.397 332.168 533.857C330.937 545.067 330.376 547.961 328.885 550.786C328.061 552.347 327.121 553.184 325.175 554.09C322.655 555.263 322.798 555.289 322.27 553.55C322.018 552.717 321.757 551.893 321.69 551.717C321.605 551.497 321.894 551.233 322.63 550.859C324.115 550.105 324.963 549.051 325.477 547.318C326.047 545.399 326.134 544.786 327.53 532.884C328.185 527.294 328.782 522.307 328.855 521.801L328.989 520.882H338.674H348.359V537.641ZM377.272 537.641V554.401H374.902H372.532L372.475 547.859L372.418 541.318L369.116 541.258L365.814 541.198L362.599 547.799L359.384 554.401H356.785C354.901 554.401 354.185 554.329 354.185 554.14C354.185 553.997 355.437 551.491 356.966 548.572C360.27 542.266 361.141 540.535 361.05 540.464C361.012 540.435 360.48 540.141 359.866 539.812C356.644 538.083 354.832 534.927 354.832 531.046C354.832 525.859 357.722 522.424 363.028 521.301C364.54 520.982 365.966 520.91 371.069 520.897L377.272 520.882V537.641ZM419.132 521.059C419.132 521.263 418.739 523.569 418.582 524.288L418.476 524.775H411.468H404.459V539.588V554.401H402.086H399.712V537.641V520.882H409.422C414.762 520.882 419.132 520.961 419.132 521.059ZM503.631 521.261C503.569 521.469 503.453 522.345 503.372 523.207L503.226 524.775H498.615H494.004V539.588V554.401H491.522H489.041V539.588V524.775H484.294H479.547V522.828V520.882H491.645C503.065 520.882 503.736 520.903 503.631 521.261ZM526.923 522.234C526.841 522.977 526.721 523.803 526.657 524.069L526.54 524.552L520.143 524.609L513.747 524.666L513.689 530.019L513.631 535.371H519.245H524.859V537.317V539.263H519.249H513.639V544.886V550.508H520.543H527.448V552.454V554.401H518.17H508.892V537.641V520.882H517.982H527.072L526.923 522.234ZM539.672 532.722C539.597 539.233 539.449 545.388 539.342 546.399C539.235 547.41 539.181 548.274 539.222 548.318C539.262 548.362 540.088 546.756 541.057 544.75C544.042 538.566 548.116 530.07 550.324 525.423L552.43 520.99L555.474 520.93L558.519 520.87V537.636V554.401H556.125H553.731L553.849 541.696C553.914 534.709 554.03 528.554 554.107 528.018C554.198 527.391 554.173 527.122 554.039 527.261C553.838 527.471 550.715 533.906 546.694 542.399C545.624 544.659 543.912 548.259 542.891 550.4L541.033 554.293L537.909 554.352L534.784 554.412V537.647V520.882H537.296H539.808L539.672 532.722ZM432.719 524.405C429.555 525.126 427.588 527.373 426.431 531.586C426.017 533.093 425.954 533.875 425.944 537.641C425.934 541.503 425.985 542.147 426.419 543.653C427.736 548.231 429.867 550.412 433.533 550.933C436.502 551.354 439.726 550.33 441.234 548.485C442.265 547.224 443.199 545.116 443.644 543.048C444.161 540.643 444.162 534.646 443.645 532.235C442.837 528.46 440.927 525.725 438.451 524.796C436.898 524.214 434.33 524.039 432.719 524.405ZM364.786 524.791C361.397 525.459 359.877 527.64 360.049 531.586C360.126 533.354 360.214 533.722 360.781 534.645C361.562 535.917 363.073 536.981 364.549 537.298C365.15 537.428 367.191 537.533 369.084 537.533H372.525V531.046V524.558L369.127 524.582C367.258 524.595 365.305 524.689 364.786 524.791ZM302.732 525.477C302.666 525.864 302.319 528.759 301.96 531.911C301.141 539.102 300.402 543.717 299.732 545.833C299.232 547.411 298.191 549.323 297.534 549.869C297.362 550.012 297.222 550.214 297.222 550.318C297.222 550.423 300.31 550.508 304.127 550.508H311.031V537.641V524.775H306.941H302.852L302.732 525.477ZM206.943 528.829C205.367 534.008 203.146 541.635 203.146 541.868C203.146 542.113 213.069 542.158 213.077 541.912C213.088 541.575 208.211 525.428 208.098 525.426C208.033 525.424 207.513 526.956 206.943 528.829ZM87.1596 568.132C87.7865 569.679 88.385 570.93 88.4901 570.912C88.595 570.895 88.9027 570.262 89.1737 569.507C90.7428 565.13 90.6979 565.213 91.5193 565.213C92.4178 565.213 92.4794 564.9 90.6873 569.43C88.9836 573.736 88.5555 574.448 87.3487 574.983C86.2243 575.482 85.768 575.384 85.768 574.644C85.768 574.231 85.9108 574.082 86.4127 573.972C86.7672 573.894 87.2542 573.579 87.4948 573.272C87.8724 572.791 87.8911 572.668 87.632 572.37C87.3058 571.995 84.4733 565.743 84.4733 565.398C84.4733 565.282 84.8214 565.217 85.2467 565.254L86.02 565.321L87.1596 568.132ZM248.504 567.213C248.566 569.202 248.569 569.214 249.142 569.281C249.662 569.341 249.838 569.146 250.948 567.28C252.116 565.32 252.217 565.213 252.908 565.213C253.309 565.213 253.637 565.291 253.637 565.385C253.637 565.48 253.049 566.515 252.33 567.684L251.023 569.811L252.438 572.26C253.216 573.607 253.852 574.816 253.852 574.948C253.852 575.091 253.536 575.16 253.065 575.119C252.312 575.055 252.225 574.959 251.058 572.89C249.947 570.922 249.776 570.721 249.148 570.66L248.458 570.592V572.89V575.188L247.757 575.12L247.056 575.052L246.998 570.133L246.939 565.213H247.691H248.442L248.504 567.213ZM414.793 568.035C415.432 569.582 416.025 570.89 416.109 570.943C416.194 570.995 416.74 569.752 417.323 568.18C418.364 565.37 418.394 565.32 419.081 565.254C419.548 565.208 419.779 565.279 419.778 565.47C419.777 565.626 419.112 567.45 418.301 569.522C416.68 573.659 415.95 574.789 414.67 575.144C413.744 575.4 413.522 575.304 413.522 574.651C413.522 574.296 413.718 574.095 414.256 573.9C415.375 573.495 415.58 573.14 415.182 572.297C413.789 569.339 412.227 565.75 412.227 565.507C412.227 565.319 412.479 565.215 412.928 565.218C413.623 565.223 413.641 565.249 414.793 568.035ZM116.537 567.705C117.341 568.214 117.79 569.492 117.789 571.268C117.788 573.03 117.504 573.805 116.519 574.727C116.076 575.142 115.711 575.266 114.935 575.267C114.38 575.268 113.712 575.191 113.45 575.095C112.99 574.927 112.972 574.975 112.911 576.501L112.847 578.08L112.146 578.148L111.445 578.215V572.795V567.376H111.973C112.264 567.376 112.594 567.541 112.708 567.744C112.877 568.047 112.971 568.064 113.244 567.837C114.063 567.156 115.573 567.095 116.537 567.705ZM128.75 567.384C130.16 567.777 130.432 568.377 130.432 571.102C130.432 572.952 130.513 573.61 130.802 574.1C131.15 574.691 131.151 574.749 130.806 575.095C130.46 575.441 130.399 575.434 129.772 574.969C129.14 574.501 129.083 574.494 128.698 574.843C127.752 575.701 125.399 575.376 124.829 574.307C124.538 573.762 124.544 572.221 124.84 571.668C125.173 571.043 126.701 570.413 127.897 570.408C128.881 570.403 128.922 570.378 128.922 569.781C128.922 568.704 128.084 568.373 126.29 568.741C125.604 568.882 125.458 568.84 125.245 568.441C124.926 567.844 125.152 567.63 126.348 567.395C127.678 567.133 127.846 567.133 128.75 567.384ZM166.196 567.729C166.757 568.082 166.777 568.204 166.369 568.744C166.13 569.06 165.982 569.093 165.635 568.906C164.909 568.517 163.723 568.625 163.262 569.12C162.165 570.3 162.477 573.313 163.757 573.897C164.178 574.089 164.513 574.086 165.186 573.884C165.864 573.68 166.136 573.679 166.374 573.876C166.894 574.309 166.72 574.666 165.814 575.029C163.188 576.082 161.065 574.454 161.076 571.396C161.081 570.024 161.572 568.593 162.222 568.054C163.25 567.201 165.113 567.049 166.196 567.729ZM203.852 567.769C204.778 568.317 205.305 569.634 205.301 571.39C205.296 573.19 204.735 574.361 203.582 574.976C201.989 575.825 199.983 575.268 199.104 573.732C198.209 572.167 198.522 569.195 199.695 568.132C200.755 567.17 202.573 567.012 203.852 567.769ZM228.823 567.785C230.624 569.078 231.039 572.176 229.668 574.105C228.339 575.976 225.113 575.685 224.107 573.603C223.286 571.903 223.645 569.008 224.795 568.054C225.886 567.149 227.763 567.024 228.823 567.785ZM264.758 567.635C265.634 568.035 265.935 569.041 265.935 571.558C265.935 572.844 266.029 573.896 266.151 573.971C266.429 574.143 266.432 575.095 266.156 575.266C265.937 575.401 265.056 575.019 264.845 574.697C264.779 574.597 264.342 574.715 263.874 574.96C262.002 575.938 259.894 574.906 259.894 573.011C259.894 571.413 261.288 570.407 263.508 570.404C264.322 570.403 264.425 570.347 264.425 569.904C264.425 568.747 263.516 568.378 261.583 568.75C260.893 568.883 260.771 568.843 260.644 568.442C260.452 567.836 260.697 567.623 261.851 567.388C262.888 567.177 263.953 567.268 264.758 567.635ZM289.994 567.775C292.078 568.957 292.121 573.298 290.064 574.8C289.746 575.031 289.018 575.261 288.445 575.311C285.838 575.536 284.222 573.133 284.91 570.054C285.46 567.589 287.809 566.537 289.994 567.775ZM370.26 567.775C372.344 568.957 372.388 573.298 370.33 574.8C370.012 575.031 369.284 575.261 368.712 575.311C366.105 575.536 364.488 573.133 365.176 570.054C365.726 567.589 368.075 566.537 370.26 567.775ZM395.282 567.778C396.358 568.4 396.8 569.416 396.8 571.268C396.8 573.072 396.413 574.003 395.327 574.813C394.479 575.447 392.444 575.452 391.583 574.823C390.267 573.862 389.678 571.675 390.218 569.754C390.84 567.543 393.248 566.603 395.282 567.778ZM454.131 567.723C455.296 568.327 455.517 569.664 454.594 570.522C454.28 570.813 454.139 571.052 454.28 571.052C454.818 571.052 455.597 572.105 455.597 572.832C455.597 574.48 454.4 575.161 451.499 575.161H449.545L449.604 571.322L449.663 567.484L450.634 567.346C451.875 567.17 453.377 567.332 454.131 567.723ZM466.37 567.371C467.84 567.794 468.911 569.525 468.723 571.177L468.651 571.809L466.211 571.87C463.805 571.93 463.773 571.938 463.914 572.41C464.353 573.887 465.184 574.303 466.843 573.877C467.413 573.731 467.98 573.673 468.103 573.75C468.595 574.055 468.276 574.559 467.324 574.981C465.625 575.734 463.976 575.307 462.875 573.829C462.357 573.134 462.155 571.035 462.486 569.807C462.763 568.781 463.937 567.46 464.704 567.313C465.547 567.151 465.613 567.153 466.37 567.371ZM481.111 567.625C481.85 568.013 482.381 569.474 482.388 571.137C482.398 573.814 481.413 575.265 479.585 575.267C479.03 575.268 478.362 575.191 478.1 575.095C477.64 574.927 477.622 574.975 477.561 576.501L477.497 578.08L476.796 578.148L476.095 578.215V572.795V567.376H476.623C476.914 567.376 477.245 567.541 477.358 567.744C477.527 568.047 477.621 568.064 477.894 567.837C478.663 567.197 480.114 567.101 481.111 567.625ZM494.482 567.724C495.14 568.065 495.21 568.243 494.835 568.619C494.672 568.782 494.124 568.824 493.24 568.741C491.948 568.62 491.878 568.639 491.504 569.211C491.043 569.917 490.85 571.996 491.17 572.825C491.294 573.145 491.652 573.577 491.966 573.783C492.463 574.109 492.663 574.123 493.523 573.893C494.375 573.665 494.556 573.676 494.85 573.976C495.16 574.293 495.146 574.36 494.69 574.735C494.061 575.252 492.945 575.469 491.915 575.276C490.076 574.93 488.982 572.663 489.484 570.24C490.016 567.67 492.228 566.556 494.482 567.724ZM532.011 567.72C532.778 568.113 533.489 569.644 533.489 570.904V571.917H531.116C528.857 571.917 528.742 571.938 528.742 572.366C528.742 572.613 529.039 573.112 529.4 573.474C529.996 574.072 530.143 574.119 530.964 573.98C532.676 573.69 532.95 573.719 532.95 574.187C532.95 575.312 529.86 575.747 528.572 574.804C527.324 573.89 526.788 571.433 527.419 569.519C528.069 567.544 530.107 566.746 532.011 567.72ZM100.18 568.943C100.266 570.896 100.708 570.925 101.851 569.051C102.305 568.308 102.78 567.628 102.907 567.541C103.257 567.299 104.324 567.345 104.324 567.602C104.324 567.726 103.843 568.542 103.256 569.414L102.188 571.001L103.364 572.878C104.011 573.91 104.54 574.852 104.54 574.971C104.54 575.09 104.18 575.156 103.739 575.119C102.99 575.057 102.875 574.944 101.959 573.381C100.639 571.129 100.264 571.128 100.18 573.376L100.117 575.052L99.4154 575.12L98.7141 575.188V571.268V567.348L99.4154 567.416L100.117 567.484L100.18 568.943ZM139.818 571.268V575.052L139.117 575.12L138.416 575.188V571.268V567.348L139.117 567.416L139.818 567.484V571.268ZM149.16 569.051L149.223 570.619H150.715H152.206L152.269 569.051L152.333 567.484H152.98H153.627V571.268V575.052L152.926 575.12L152.225 575.188V573.552V571.917H150.715H149.204V573.539V575.161H148.449H147.694V571.412C147.694 569.351 147.763 567.595 147.848 567.51C147.932 567.425 148.248 567.384 148.549 567.42C149.072 567.481 149.099 567.554 149.16 569.051ZM175.269 568.727L175.334 569.971H176.413C178.29 569.971 179.412 570.882 179.412 572.408C179.412 574.367 178.298 575.161 175.549 575.161H173.802V571.254V567.348L174.503 567.416C175.196 567.483 175.205 567.498 175.269 568.727ZM187.827 568.889C187.827 570.338 187.849 570.403 188.339 570.403C188.734 570.403 189.067 570.069 189.795 568.943C190.605 567.692 190.84 567.474 191.441 567.416C191.851 567.376 192.142 567.448 192.142 567.588C192.142 567.72 191.656 568.549 191.063 569.431L189.983 571.034L191.17 572.86C191.824 573.865 192.358 574.793 192.358 574.923C192.358 575.054 192.024 575.161 191.615 575.161C190.916 575.161 190.81 575.058 189.837 573.431C189.032 572.084 188.694 571.701 188.315 571.701C187.849 571.701 187.827 571.778 187.827 573.431V575.161H187.18H186.532V571.268V567.376H187.18H187.827V568.889ZM217.563 567.97C217.497 568.551 217.458 568.566 215.936 568.628L214.378 568.692L214.318 571.872L214.259 575.052L213.557 575.12L212.856 575.188V571.282V567.376H215.244H217.632L217.563 567.97ZM278.775 567.594C278.849 567.714 278.848 568.006 278.773 568.243C278.659 568.603 278.446 568.673 277.465 568.673H276.292V571.93V575.188L275.591 575.12L274.89 575.052L274.83 571.863L274.771 568.673H273.589C272.421 568.673 272.408 568.666 272.408 568.024V567.376H275.524C277.387 567.376 278.695 567.463 278.775 567.594ZM304.509 571.322L304.568 575.161H303.808H303.048V571.917V568.673H301.986C300.764 568.673 300.805 568.589 300.558 571.592C300.479 572.544 300.284 573.638 300.124 574.025C299.813 574.776 298.975 575.3 298.422 575.088C297.983 574.919 297.988 574.155 298.43 573.907C298.837 573.679 299.063 572.569 299.274 569.754C299.359 568.624 299.474 567.624 299.529 567.531C299.584 567.438 300.714 567.389 302.04 567.423L304.45 567.484L304.509 571.322ZM313.883 570.025L313.944 572.674L315.205 570.295C315.899 568.987 316.566 567.795 316.688 567.646C316.81 567.497 317.238 567.376 317.638 567.376H318.367V571.282V575.188L317.666 575.12L316.965 575.052L316.97 572.529C316.973 571.141 316.924 570.038 316.862 570.079C316.8 570.119 316.166 571.277 315.454 572.653L314.16 575.153L313.243 575.157L312.326 575.161V571.412C312.326 569.351 312.391 567.599 312.47 567.52C312.549 567.44 312.886 567.376 313.218 567.376H313.823L313.883 570.025ZM327.813 570.673L327.873 573.863H329.264H330.655L330.714 570.673L330.774 567.484H331.421H332.069L332.128 570.673L332.188 573.863H332.722C333.245 573.863 333.255 573.897 333.255 575.593V577.323H332.62C332.015 577.323 331.981 577.274 331.919 576.296L331.853 575.269L329.102 575.208L326.351 575.148V571.406C326.351 569.348 326.42 567.595 326.505 567.51C326.589 567.425 326.905 567.384 327.206 567.42L327.753 567.484L327.813 570.673ZM341.627 568.727L341.692 569.971H342.781C344.84 569.971 345.77 570.799 345.77 572.636C345.77 574.463 344.73 575.161 342.005 575.161H340.16V571.412C340.16 569.351 340.229 567.595 340.314 567.51C340.398 567.425 340.714 567.384 341.015 567.42C341.522 567.479 341.568 567.577 341.627 568.727ZM354.357 568.943C354.413 570.227 354.471 570.403 354.844 570.403C355.131 570.403 355.576 569.919 356.235 568.889C357.081 567.566 357.285 567.376 357.852 567.376C358.23 567.376 358.5 567.489 358.5 567.648C358.5 567.798 358.064 568.574 357.529 569.371C356.995 570.169 356.559 570.919 356.559 571.038C356.559 571.156 357.093 572.083 357.745 573.097C358.398 574.111 358.932 574.99 358.932 575.05C358.932 575.111 358.553 575.161 358.089 575.161C357.264 575.161 357.226 575.125 356.235 573.431C355.532 572.228 355.098 571.701 354.812 571.701C354.442 571.701 354.401 571.874 354.401 573.431V575.161H353.646H352.89V571.412C352.89 569.351 352.96 567.595 353.044 567.51C353.129 567.425 353.444 567.384 353.746 567.42C354.264 567.48 354.296 567.561 354.357 568.943ZM384.046 567.554C384.107 567.653 384.101 567.945 384.033 568.203C383.922 568.632 383.772 568.673 382.318 568.673H380.725V571.917V575.161H379.97H379.214V571.412C379.214 569.351 379.279 567.599 379.358 567.52C379.567 567.31 383.915 567.342 384.046 567.554ZM427.718 569.051L427.781 570.619H429.282H430.783V568.984V567.348L431.484 567.416L432.186 567.484L432.245 571.322L432.303 575.161H431.543H430.783V573.539V571.917H429.273H427.762V573.539V575.161H427.007H426.252V571.412C426.252 569.351 426.321 567.595 426.406 567.51C426.49 567.425 426.806 567.384 427.107 567.42C427.63 567.481 427.657 567.554 427.718 569.051ZM441.523 571.322L441.582 575.161H440.821H440.061V571.412C440.061 569.351 440.131 567.595 440.215 567.51C440.299 567.425 440.615 567.384 440.916 567.42L441.464 567.484L441.523 571.322ZM503.497 570.079L503.605 572.674L504.174 571.701C504.486 571.165 505.117 569.998 505.576 569.106C506.37 567.563 506.45 567.48 507.219 567.417L508.029 567.349V571.269V575.188L507.327 575.12L506.626 575.052L506.643 572.505C506.653 571.104 506.586 570.033 506.494 570.126C506.403 570.219 505.764 571.365 505.075 572.674L503.821 575.052L502.904 575.119L501.987 575.185V571.425C501.987 569.356 502.056 567.595 502.141 567.51C502.225 567.425 502.541 567.384 502.842 567.42C503.387 567.483 503.39 567.494 503.497 570.079ZM521.151 567.97C521.087 568.523 520.999 568.573 519.896 568.673L518.709 568.781L518.649 571.971L518.59 575.161H517.954H517.318L517.259 571.971L517.199 568.781L515.958 568.716C514.829 568.657 514.717 568.607 514.717 568.158C514.717 567.886 514.782 567.599 514.861 567.52C514.94 567.44 516.403 567.376 518.112 567.376H521.219L521.151 567.97ZM546.004 568.014C546.004 568.638 545.979 568.653 544.763 568.716L543.523 568.781L543.463 571.971L543.403 575.161H542.762H542.12V571.917V568.673H540.927C539.696 568.673 539.338 568.409 539.609 567.7C539.712 567.432 540.281 567.376 542.869 567.376H546.004V568.014ZM553.072 567.646C553.19 567.795 553.663 569.205 554.123 570.781C554.582 572.356 555.007 573.645 555.066 573.646C555.126 573.646 555.351 573.038 555.566 572.295C557.011 567.311 556.983 567.376 557.669 567.376C558.176 567.376 558.303 567.47 558.303 567.845C558.303 568.511 555.783 575.754 555.251 576.617C554.788 577.368 553.457 578.188 552.702 578.188C551.925 578.188 552.136 577.247 553.006 576.831C553.842 576.431 554.623 575.425 554.273 575.196C553.983 575.006 551.593 567.801 551.741 567.561C551.914 567.281 552.826 567.339 553.072 567.646ZM113.656 568.887L112.955 569.316V571.361C112.955 573.229 112.996 573.435 113.435 573.743C113.936 574.095 114.619 574.172 115.211 573.945C115.802 573.718 116.191 572.654 116.191 571.268C116.191 569.757 115.784 568.788 115.067 568.595C114.396 568.415 114.445 568.405 113.656 568.887ZM201.27 568.671C200.471 569.001 200.069 570.078 200.166 571.619C200.272 573.287 200.862 574.079 201.997 574.079C203.339 574.079 203.958 572.84 203.742 570.589C203.591 569.008 202.5 568.162 201.27 568.671ZM226.234 568.731C224.646 569.55 224.983 573.795 226.655 574.043C228.139 574.263 228.823 573.361 228.823 571.183C228.823 570.032 228.735 569.68 228.338 569.234C227.734 568.557 226.939 568.367 226.234 568.731ZM287.579 568.675C286.755 569.008 286.38 569.852 286.38 571.376C286.38 572.958 286.769 573.776 287.623 573.991C289.075 574.357 289.976 573.408 289.985 571.504C289.993 569.813 289.766 569.167 289.03 568.785C288.316 568.415 288.238 568.409 287.579 568.675ZM367.756 568.698C367.446 568.811 367.082 569.149 366.947 569.448C366.618 570.171 366.637 572.537 366.977 573.211C367.504 574.255 369.181 574.343 369.824 573.359C370.697 572.024 370.386 569.35 369.292 568.783C368.582 568.415 368.532 568.412 367.756 568.698ZM392.786 568.697C391.989 568.991 391.621 569.833 391.621 571.364C391.621 573.398 392.496 574.367 393.992 573.991C394.795 573.789 395.219 572.966 395.251 571.545C395.285 570.038 394.908 569.031 394.185 568.701C393.571 568.42 393.539 568.42 392.786 568.697ZM451.066 569.566V570.676L452.036 570.566C453.193 570.435 453.655 570.102 453.655 569.398C453.655 568.8 452.98 568.457 451.807 568.457H451.066V569.566ZM464.8 568.702C464.345 568.967 463.719 570.32 463.91 570.629C464.081 570.906 466.971 570.894 467.143 570.615C467.402 570.194 466.792 568.869 466.242 568.66C465.571 568.404 465.298 568.412 464.8 568.702ZM478.306 568.887L477.605 569.316V571.361C477.605 573.229 477.647 573.435 478.085 573.743C478.586 574.095 479.269 574.172 479.861 573.945C480.431 573.726 480.842 572.667 480.842 571.419C480.842 569.878 480.486 568.907 479.83 568.658C479.13 568.391 479.115 568.393 478.306 568.887ZM529.764 568.602C529.326 568.722 528.742 569.743 528.742 570.392C528.742 570.8 528.873 570.836 530.361 570.836H531.979V570.211C531.979 569.102 530.875 568.3 529.764 568.602ZM175.312 572.457V573.863H176.25C177.332 573.863 177.901 573.391 177.901 572.494C177.901 571.637 177.201 571.052 176.175 571.052H175.312V572.457ZM341.67 572.457V573.863H342.626C343.784 573.863 344.26 573.453 344.26 572.454C344.26 571.549 343.631 571.052 342.485 571.052H341.67V572.457ZM126.548 571.917C126.069 572.397 125.976 573.419 126.376 573.82C126.74 574.185 127.873 574.142 128.442 573.743C128.815 573.481 128.922 573.193 128.922 572.445V571.484H127.951C127.268 571.484 126.852 571.613 126.548 571.917ZM261.934 572.015C260.98 572.971 261.374 574.079 262.669 574.079C263.744 574.079 264.425 573.383 264.425 572.281V571.484H263.444C262.691 571.484 262.341 571.607 261.934 572.015ZM451.066 572.782V573.863H452.237C453.475 573.863 454.086 573.512 454.086 572.8C454.086 572.111 453.375 571.701 452.181 571.701H451.066V572.782Z" fill="#000000"/>
<path d="M107.789 261.001C102.931 266.586 99.9688 273.897 99.9688 281.921C100.256 299.537 102.391 317.116 102.577 334.727C102.962 351.141 98.1018 366.555 92.1922 381.593C90.222 385.75 88.0928 389.815 85.9604 393.888L79.6892 392.607C74.0451 391.463 70.375 385.907 71.5024 380.193C72.4875 375.188 76.8348 371.718 81.6834 371.69L83.9652 371.941L78.8736 328.866C77.2104 309.689 67.4444 292.865 53.0538 281.919C50.5799 280.035 47.9596 278.317 45.2332 276.8V429.782H80.0962C82.7044 444.116 90.4914 456.604 101.437 465.18C104.043 466.996 106.222 469.399 107.789 472.193C109.359 469.399 111.537 466.996 114.143 465.18C125.089 456.607 132.877 444.115 135.484 429.782H170.341V276.806C167.62 278.321 164.998 280.04 162.525 281.925C148.139 292.871 138.368 309.694 136.702 328.873L131.612 371.948L133.894 371.697C138.743 371.724 143.088 375.194 144.078 380.2C145.206 385.913 141.536 391.469 135.892 392.613L129.618 393.894C127.487 389.819 125.359 385.756 123.386 381.6C117.477 366.562 112.615 351.148 112.999 334.733C113.185 317.12 115.32 299.542 115.607 281.927C115.61 273.899 112.65 266.587 107.79 261.001H107.789ZM55.6587 298.835C62.4039 306.858 66.9327 316.853 68.2841 327.836L72.4794 363.361C67.1366 366.052 63.0892 370.995 61.5636 376.973H55.6612V298.834L55.6587 298.835ZM159.916 298.835V376.975H154.016C152.491 370.999 148.441 366.053 143.1 363.362L147.296 327.837C148.642 316.854 153.174 306.857 159.916 298.834V298.835ZM107.789 370.254C110.592 379.53 114.446 388.342 119.233 396.534C114.679 397.935 110.712 400.664 107.789 404.329C104.869 400.664 100.902 397.935 96.346 396.534C101.135 388.345 104.989 379.533 107.789 370.254ZM55.6587 387.539H61.5612C63.4258 394.83 69.0404 400.587 76.1839 402.597L81.1947 403.751C79.8515 408.68 79.1167 413.869 79.1167 419.223H55.6591L55.6587 387.539ZM154.017 387.539H159.917V419.22H136.459C136.459 413.869 135.725 408.68 134.381 403.749L139.392 402.595C146.535 400.589 152.156 394.83 154.017 387.539L154.017 387.539ZM91.3732 406.186C97.6978 407.096 102.574 412.567 102.574 419.222L89.5406 419.222C89.5406 414.695 90.2043 410.333 91.3732 406.186L91.3732 406.186ZM124.202 406.186C125.373 410.333 126.034 414.696 126.034 419.222H112.999C113.001 412.567 117.877 407.097 124.201 406.186H124.202ZM90.7223 429.786H102.574V452.022C96.8237 445.93 92.6452 438.283 90.7223 429.786ZM113.001 429.786H124.852C122.934 438.282 118.755 445.929 113.001 452.022V429.786Z" fill="#000000"/>
<path fill-rule="evenodd" clip-rule="evenodd" d="M362.253 47.2065C369.2 48.443 375.853 50.8149 382.25 54.3366C387.893 57.4437 394.548 62.3288 394.548 63.3645C394.548 63.7934 391.742 67.4141 388.314 71.4105C384.885 75.4063 381.991 78.8067 381.882 78.9659C381.773 79.1252 379.828 77.956 377.56 76.3674C364.184 67.0016 349.621 63.9405 335.573 67.541C327.716 69.555 322.003 72.8393 316.065 78.7529C311.997 82.8061 310.27 85.2454 307.688 90.591C301.431 103.539 299.076 116.558 299.139 137.849C299.173 149.423 299.497 154.307 300.661 160.802C305.112 185.635 315.373 200.101 332.529 205.73C340.694 208.409 352.975 208.564 360.886 206.089C367.553 204.003 373.551 201.015 379.362 196.884C381.834 195.127 384.175 193.795 384.564 193.925C385.587 194.267 396.687 208.345 396.691 209.307C396.699 211.085 383.382 220.463 376.877 223.261C356.974 231.822 331.315 231.077 313.144 221.409C291.912 210.113 279.679 191.089 274.174 160.8C272.024 148.975 272.027 126.005 274.18 114.1C278.235 91.6783 286.082 76.1357 299.852 63.2555C306.216 57.3031 311.129 54.0956 318.46 51.1069C331.957 45.6049 346.148 44.3411 362.253 47.2065ZM136.902 112.417C136.902 167.441 137.053 176.661 138.032 181.451C140.776 194.889 147.625 202.615 160.183 206.438C166.151 208.254 180.638 208.256 186.642 206.44C192.586 204.643 198.813 201.2 201.344 198.311C204.138 195.122 207.242 188.83 208.881 183.035C210.109 178.693 210.217 173.933 210.441 113.642L210.681 48.9107H223.174H235.666L235.652 111.49C235.635 184.002 235.53 185.445 229.318 198.455C222.832 212.037 210.008 222.357 194.157 226.75C186.54 228.861 175 229.741 165.708 228.919C138.979 226.553 120.799 212.234 113.827 188.055C112.294 182.738 112.273 181.908 112.04 115.793L111.805 48.9107H124.353H136.902V112.417ZM458.431 113.283C458.668 170.903 458.823 178.131 459.905 182.191C463.438 195.446 470.217 202.813 482.219 206.44C488.218 208.254 502.711 208.254 508.668 206.44C518.422 203.471 523.877 199.143 527.645 191.381C532.47 181.44 532.243 185.078 532.502 113.642L532.738 48.9107H545.231H557.723V111.934C557.723 181.264 557.72 181.326 553.335 193.472C547.317 210.138 533.663 222.212 515.585 226.854C507.563 228.913 496.786 229.716 487.819 228.923C459.934 226.456 441.422 211.122 435.186 185.326C433.721 179.27 433.67 177.213 433.389 114L433.1 48.9107H445.633H458.166L458.431 113.283ZM244.794 346.028L244.612 435.862L232.267 436.059L219.921 436.255V346.224V256.193H232.449H244.976L244.794 346.028ZM358.864 257.302C370.187 259.4 376.142 261.936 384.28 268.125C391.079 273.296 395.547 278.839 399.232 286.676C405.245 299.467 404.861 294.069 405.107 369.355L405.325 436.255L392.959 436.059L380.592 435.862L380.234 370.235L379.876 304.607L377.909 299.035C374.492 289.359 370.182 284.318 362.069 280.514C356.444 277.876 351.659 276.99 343.1 277.004C326.865 277.029 316.03 282.919 310.749 294.592C306.615 303.728 306.519 305.542 306.519 373.932V436.255L294.173 436.059L281.828 435.862L281.615 374.538C281.383 308.184 281.561 303.972 285.042 293.455C287.769 285.216 291.367 279.289 297.608 272.756C305.559 264.432 313.678 260.121 326.103 257.627C334.581 255.924 350.575 255.766 358.864 257.302ZM512.881 257.637C518.248 258.703 522.114 260.046 527.657 262.771C534.099 265.938 536.042 267.342 541.348 272.659C546.513 277.835 548.074 279.973 550.822 285.635C552.632 289.364 554.837 294.996 555.723 298.152C557.331 303.885 557.333 303.949 557.556 370.055L557.779 436.221H545.255H532.731L532.487 371.49C532.219 300.065 532.394 302.879 527.631 293.424C524.761 287.725 520.372 283.418 514.709 280.742C508.645 277.876 504.053 276.993 495.216 276.993C475.959 276.993 465 284.781 460.22 301.864C458.666 307.419 458.648 308.127 458.411 371.865L458.172 436.255L445.863 436.058L433.552 435.862V371.669C433.552 312.233 433.649 307.024 434.858 301.379C439.003 282.033 450.457 267.468 466.737 260.838C478.237 256.155 498.382 254.757 512.881 257.637Z" fill="#000000"/>
</svg>