<svg width="961" height="960" viewBox="0 0 961 960" fill="none" xmlns="http://www.w3.org/2000/svg">
<path d="M280.226 433.363C275.218 439.12 272.165 446.656 272.165 454.926C272.461 473.084 274.661 491.203 274.853 509.356C275.25 526.275 270.24 542.163 264.149 557.664C262.118 561.948 259.924 566.138 257.726 570.336L251.262 569.016C245.444 567.836 241.661 562.11 242.823 556.221C243.838 551.061 248.32 547.484 253.317 547.456L255.669 547.715L250.421 503.315C248.707 483.548 238.64 466.207 223.807 454.924C221.257 452.983 218.556 451.212 215.746 449.647V607.334H251.681C254.37 622.109 262.396 634.98 273.678 643.821C276.364 645.693 278.61 648.169 280.226 651.049C281.843 648.169 284.089 645.693 286.775 643.821C298.057 634.984 306.085 622.108 308.773 607.334H344.701V449.654C341.896 451.216 339.194 452.988 336.645 454.931C321.816 466.213 311.744 483.554 310.027 503.322L304.781 547.721L307.133 547.462C312.131 547.491 316.61 551.067 317.631 556.227C318.793 562.116 315.01 567.843 309.192 569.022L302.726 570.343C300.529 566.142 298.336 561.955 296.302 557.67C290.211 542.17 285.2 526.282 285.596 509.362C285.788 491.208 287.988 473.089 288.284 454.933C288.287 446.657 285.236 439.121 280.227 433.363H280.226ZM226.492 472.361C233.445 480.63 238.113 490.933 239.506 502.253L243.83 538.87C238.323 541.645 234.151 546.74 232.579 552.901H226.495V472.359L226.492 472.361ZM333.956 472.361V552.903H327.874C326.302 546.744 322.127 541.646 316.623 538.871L320.947 502.254C322.335 490.933 327.006 480.629 333.956 472.36V472.361ZM280.226 545.975C283.115 555.537 287.087 564.62 292.021 573.064C287.328 574.508 283.238 577.321 280.226 581.098C277.215 577.321 273.127 574.508 268.431 573.064C273.367 564.623 277.34 555.54 280.226 545.975ZM226.492 563.792H232.576C234.498 571.308 240.285 577.241 247.649 579.313L252.813 580.503C251.429 585.583 250.672 590.932 250.672 596.45H226.493L226.492 563.792ZM327.875 563.792H333.956V596.447H309.777C309.777 590.932 309.02 585.583 307.636 580.5L312.8 579.311C320.163 577.243 325.956 571.308 327.875 563.792L327.875 563.792ZM263.305 583.013C269.824 583.951 274.85 589.59 274.85 596.449L261.416 596.45C261.416 591.783 262.1 587.287 263.305 583.013L263.305 583.013ZM297.143 583.013C298.35 587.287 299.032 591.785 299.032 596.449H285.595C285.598 589.59 290.624 583.952 297.143 583.013H297.143ZM262.634 607.339H274.85V630.258C268.923 623.979 264.616 616.096 262.634 607.339ZM285.598 607.339H297.813C295.836 616.095 291.529 623.977 285.598 630.258V607.339Z" fill="#4F1ED9"/>
<path fill-rule="evenodd" clip-rule="evenodd" d="M542.755 211.226C549.917 212.5 556.775 214.945 563.368 218.575C569.185 221.778 576.044 226.813 576.044 227.881C576.044 228.323 573.152 232.055 569.618 236.174C566.084 240.293 563.101 243.798 562.988 243.962C562.876 244.126 560.871 242.921 558.533 241.283C544.747 231.63 529.736 228.474 515.255 232.186C507.157 234.262 501.268 237.647 495.148 243.742C490.954 247.92 489.175 250.434 486.513 255.944C480.064 269.291 477.637 282.71 477.701 304.655C477.736 316.586 478.07 321.62 479.27 328.314C483.858 353.911 494.435 368.822 512.118 374.624C520.534 377.385 533.193 377.545 541.347 374.994C548.219 372.843 554.401 369.763 560.391 365.506C562.939 363.695 565.352 362.322 565.753 362.455C566.808 362.808 578.249 377.319 578.253 378.311C578.261 380.143 564.535 389.809 557.829 392.694C537.314 401.518 510.867 400.75 492.137 390.785C470.252 379.142 457.642 359.532 451.968 328.313C449.752 316.124 449.756 292.448 451.975 280.176C456.155 257.065 464.243 241.045 478.436 227.768C484.996 221.633 490.06 218.327 497.616 215.246C511.528 209.575 526.156 208.272 542.755 211.226ZM310.476 278.441C310.476 335.158 310.631 344.661 311.64 349.598C314.469 363.45 321.529 371.413 334.473 375.354C340.624 377.226 355.556 377.227 361.745 375.356C367.872 373.504 374.29 369.954 376.899 366.977C379.779 363.69 382.979 357.204 384.668 351.231C385.934 346.755 386.045 341.849 386.275 279.704L386.523 212.982H399.4H412.277L412.262 277.486C412.245 352.227 412.137 353.716 405.733 367.126C399.048 381.125 385.829 391.762 369.491 396.29C361.64 398.466 349.745 399.373 340.168 398.526C312.616 396.088 293.877 381.328 286.691 356.406C285.111 350.925 285.09 350.069 284.849 281.922L284.606 212.982H297.541H310.476V278.441ZM641.891 279.334C642.135 338.726 642.295 346.176 643.411 350.361C647.053 364.023 654.04 371.617 666.411 375.356C672.595 377.226 687.533 377.226 693.673 375.356C703.727 372.295 709.35 367.834 713.233 359.833C718.207 349.587 717.973 353.337 718.241 279.704L718.483 212.982H731.36H744.237V277.944C744.237 349.405 744.233 349.47 739.713 361.989C733.511 379.167 719.436 391.613 700.803 396.397C692.534 398.52 681.425 399.348 672.183 398.53C643.44 395.987 624.359 380.182 617.931 353.593C616.422 347.35 616.369 345.23 616.08 280.074L615.782 212.982H628.7H641.618L641.891 279.334ZM421.685 519.236L421.498 611.832L408.773 612.035L396.048 612.237V519.438V426.639H408.96H421.873L421.685 519.236ZM698.015 428.127C703.547 429.226 707.533 430.61 713.246 433.419C719.886 436.684 721.889 438.13 727.358 443.611C732.682 448.946 734.291 451.15 737.123 456.986C738.989 460.829 741.262 466.635 742.175 469.888C743.832 475.797 743.835 475.863 744.064 544.002L744.294 612.202H731.385H718.477L718.225 545.481C717.948 471.859 718.128 474.76 713.219 465.014C710.261 459.141 705.737 454.7 699.9 451.943C693.649 448.989 688.916 448.078 679.808 448.078C659.958 448.078 648.662 456.106 643.735 473.714C642.133 479.44 642.115 480.17 641.871 545.867L641.625 612.237L628.937 612.034L616.248 611.832V545.666C616.248 484.402 616.347 479.033 617.594 473.215C621.866 453.274 633.672 438.26 650.453 431.427C662.306 426.6 683.071 425.159 698.015 428.127Z" fill="#072942"/>
<path fill-rule="evenodd" clip-rule="evenodd" d="M538.016 428.126C543.548 429.225 547.533 430.609 553.247 433.418C559.887 436.683 561.889 438.13 567.359 443.61C572.683 448.945 574.291 451.149 577.124 456.985C578.989 460.828 581.262 466.634 582.175 469.887C583.833 475.796 583.835 475.863 584.064 544.001L584.295 612.201H571.386H558.477L558.225 545.48C557.949 471.859 558.129 474.759 553.219 465.013C550.261 459.14 545.737 454.699 539.9 451.942C533.649 448.988 528.916 448.078 519.808 448.078C499.958 448.078 488.663 456.105 483.736 473.713C482.134 479.439 482.115 480.169 481.872 545.866L481.625 612.236L468.937 612.033L456.248 611.832V545.665C456.248 484.401 456.348 479.032 457.594 473.214C461.866 453.273 473.672 438.259 490.453 431.426C502.306 426.599 523.071 425.158 538.016 428.126Z" fill="#072942"/>
<path d="M713.017 717.546V684.282H717.577V708.906C718.601 707.21 719.849 705.274 721.321 703.098C722.825 700.922 724.409 698.714 726.073 696.474C727.769 694.202 729.465 692.01 731.161 689.898C732.889 687.754 734.505 685.882 736.009 684.282H739.705V717.546H735.145V691.578C734.249 692.602 733.273 693.786 732.217 695.13C731.161 696.474 730.073 697.914 728.953 699.45C727.833 700.954 726.697 702.522 725.545 704.154C724.425 705.786 723.337 707.402 722.281 709.002C721.225 710.57 720.233 712.09 719.305 713.562C718.409 715.034 717.609 716.362 716.905 717.546H713.017ZM726.409 681.066C724.393 681.066 722.745 680.554 721.465 679.53C720.217 678.506 719.465 677.082 719.209 675.258L722.617 674.346C722.873 675.37 723.305 676.202 723.913 676.842C724.521 677.482 725.353 677.802 726.409 677.802C727.465 677.802 728.297 677.482 728.905 676.842C729.513 676.202 729.945 675.37 730.201 674.346L733.561 675.258C733.305 677.082 732.553 678.506 731.305 679.53C730.057 680.554 728.425 681.066 726.409 681.066Z" fill="black"/>
<path d="M684.635 717.545V684.281H704.939V688.265H689.291V698.153H703.211V702.041H689.291V713.561H706.139V717.545H684.635Z" fill="black"/>
<path d="M678.758 684.281V688.313H668.294V717.545H663.638V688.313H653.174V684.281H678.758Z" fill="black"/>
<path d="M639.315 718.266C636.979 718.266 634.851 717.882 632.931 717.114C631.011 716.346 629.363 715.226 627.987 713.754C626.611 712.282 625.539 710.474 624.771 708.33C624.035 706.154 623.667 703.674 623.667 700.89C623.667 698.106 624.083 695.642 624.915 693.498C625.779 691.322 626.931 689.498 628.371 688.026C629.811 686.554 631.491 685.434 633.411 684.666C635.331 683.898 637.379 683.514 639.555 683.514C640.931 683.514 642.163 683.61 643.251 683.802C644.371 683.994 645.331 684.218 646.131 684.474C646.963 684.73 647.635 684.986 648.147 685.242C648.659 685.498 649.011 685.69 649.203 685.818L647.859 689.658C647.571 689.466 647.155 689.258 646.611 689.034C646.067 688.81 645.443 688.586 644.739 688.362C644.067 688.138 643.315 687.962 642.483 687.834C641.683 687.674 640.867 687.594 640.035 687.594C638.275 687.594 636.691 687.898 635.283 688.506C633.875 689.114 632.675 689.994 631.683 691.146C630.691 692.298 629.923 693.706 629.379 695.37C628.867 697.002 628.611 698.842 628.611 700.89C628.611 702.874 628.835 704.682 629.283 706.314C629.763 707.946 630.467 709.354 631.395 710.538C632.323 711.69 633.475 712.586 634.851 713.226C636.259 713.866 637.891 714.186 639.747 714.186C641.891 714.186 643.667 713.962 645.075 713.514C646.483 713.066 647.539 712.666 648.243 712.314L649.443 716.154C649.219 716.314 648.819 716.522 648.243 716.778C647.667 717.002 646.947 717.226 646.083 717.45C645.219 717.674 644.211 717.866 643.059 718.026C641.907 718.186 640.659 718.266 639.315 718.266Z" fill="black"/>
<path d="M585.348 700.89C585.348 698.042 585.764 695.53 586.596 693.354C587.46 691.178 588.612 689.37 590.052 687.93C591.524 686.458 593.22 685.354 595.14 684.618C597.092 683.882 599.156 683.514 601.332 683.514C603.476 683.514 605.492 683.882 607.38 684.618C609.3 685.354 610.98 686.458 612.42 687.93C613.86 689.37 614.996 691.178 615.828 693.354C616.692 695.53 617.124 698.042 617.124 700.89C617.124 703.738 616.692 706.25 615.828 708.426C614.996 710.602 613.86 712.426 612.42 713.898C610.98 715.338 609.3 716.426 607.38 717.162C605.492 717.898 603.476 718.266 601.332 718.266C599.156 718.266 597.092 717.898 595.14 717.162C593.22 716.426 591.524 715.338 590.052 713.898C588.612 712.426 587.46 710.602 586.596 708.426C585.764 706.25 585.348 703.738 585.348 700.89ZM590.244 700.89C590.244 702.906 590.5 704.746 591.012 706.41C591.524 708.042 592.244 709.434 593.172 710.586C594.132 711.738 595.284 712.634 596.628 713.274C598.004 713.882 599.54 714.186 601.236 714.186C602.932 714.186 604.452 713.882 605.796 713.274C607.14 712.634 608.276 711.738 609.204 710.586C610.164 709.434 610.9 708.042 611.412 706.41C611.924 704.746 612.18 702.906 612.18 700.89C612.18 698.874 611.924 697.05 611.412 695.418C610.9 693.754 610.164 692.346 609.204 691.194C608.276 690.042 607.14 689.162 605.796 688.554C604.452 687.914 602.932 687.594 601.236 687.594C599.54 687.594 598.004 687.914 596.628 688.554C595.284 689.162 594.132 690.042 593.172 691.194C592.244 692.346 591.524 693.754 591.012 695.418C590.5 697.05 590.244 698.874 590.244 700.89Z" fill="black"/>
<path d="M582.158 684.281V688.313H567.278V717.545H562.622V684.281H582.158Z" fill="black"/>
<path d="M532.037 688.025C530.821 688.025 529.653 688.121 528.533 688.313C527.445 688.505 526.469 688.841 525.605 689.321C524.741 689.801 524.053 690.457 523.541 691.289C523.029 692.121 522.773 693.161 522.773 694.409C522.773 696.777 523.525 698.425 525.029 699.353C526.565 700.249 528.853 700.697 531.893 700.697H536.693V688.169C536.341 688.169 535.925 688.153 535.445 688.121C535.029 688.089 534.533 688.073 533.957 688.073C533.413 688.041 532.773 688.025 532.037 688.025ZM532.421 683.945C533.093 683.945 533.813 683.961 534.581 683.993C535.349 684.025 536.117 684.073 536.885 684.137C537.685 684.201 538.469 684.281 539.237 684.377C540.005 684.473 540.709 684.601 541.349 684.761V717.545H536.693V704.537H532.709C532.261 704.537 531.781 704.537 531.269 704.537C530.789 704.505 530.133 704.441 529.301 704.345C528.725 705.113 528.101 706.009 527.429 707.033C526.757 708.057 526.085 709.145 525.413 710.297C524.741 711.449 524.069 712.649 523.397 713.897C522.757 715.145 522.165 716.361 521.621 717.545H516.725C517.237 716.297 517.845 715.001 518.549 713.657C519.253 712.313 519.973 711.033 520.709 709.817C521.477 708.601 522.197 707.481 522.869 706.457C523.573 705.401 524.181 704.537 524.693 703.865C523.957 703.641 523.189 703.321 522.389 702.905C521.589 702.489 520.853 701.913 520.181 701.177C519.509 700.441 518.949 699.529 518.501 698.441C518.085 697.321 517.877 695.993 517.877 694.457C517.877 692.729 518.213 691.209 518.885 689.897C519.557 688.585 520.517 687.497 521.765 686.633C523.045 685.737 524.581 685.065 526.373 684.617C528.165 684.169 530.181 683.945 532.421 683.945Z" fill="black"/>
<path d="M495.603 688.265C495.539 690.057 495.475 691.801 495.411 693.497C495.347 695.161 495.251 696.793 495.123 698.393C494.995 699.961 494.803 701.497 494.547 703.001C494.291 704.505 493.939 705.977 493.491 707.417C493.043 708.857 492.483 710.217 491.811 711.497C491.171 712.745 490.355 713.849 489.363 714.809C488.403 715.737 487.251 716.489 485.907 717.065C484.595 717.641 483.043 717.961 481.251 718.025L480.723 713.993C482.963 713.737 484.691 713.033 485.907 711.881C487.155 710.729 488.179 708.969 488.979 706.601C489.875 703.913 490.435 700.681 490.659 696.905C490.915 693.097 491.043 688.889 491.043 684.281H509.907V717.545H505.251V688.265H495.603Z" fill="black"/>
<path d="M448.558 717.545V726.425H444.142V713.561H447.646C449.278 711.705 450.526 709.657 451.39 707.417C452.286 705.145 452.926 702.761 453.31 700.265C453.726 697.737 453.966 695.129 454.03 692.441C454.126 689.753 454.19 687.033 454.222 684.281H473.038V713.561H477.214V726.425H472.798V717.545H448.558ZM458.782 688.265C458.686 690.377 458.574 692.537 458.446 694.745C458.35 696.921 458.11 699.097 457.726 701.273C457.374 703.417 456.846 705.529 456.142 707.609C455.438 709.689 454.446 711.673 453.166 713.561H468.382V688.265H458.782Z" fill="black"/>
<path d="M399.55 717.545V684.281H404.11V708.905C405.134 707.209 406.382 705.273 407.854 703.097C409.358 700.921 410.942 698.713 412.606 696.473C414.302 694.201 415.998 692.009 417.694 689.897C419.422 687.753 421.038 685.881 422.542 684.281H426.238V717.545H421.678V691.577C420.782 692.601 419.806 693.785 418.75 695.129C417.694 696.473 416.606 697.913 415.486 699.449C414.366 700.953 413.23 702.521 412.078 704.153C410.958 705.785 409.87 707.401 408.814 709.001C407.758 710.569 406.766 712.089 405.838 713.561C404.942 715.033 404.142 716.361 403.438 717.545H399.55Z" fill="black"/>
<path d="M393.674 684.281V688.313H383.21V717.545H378.554V688.313H368.09V684.281H393.674Z" fill="black"/>
<path d="M363.979 717.545C363.435 716.105 362.923 714.697 362.443 713.321C361.963 711.913 361.467 710.489 360.955 709.049H345.883L342.859 717.545H338.011C339.291 714.025 340.491 710.777 341.611 707.801C342.731 704.793 343.819 701.945 344.875 699.257C345.963 696.569 347.035 694.009 348.091 691.577C349.147 689.113 350.251 686.681 351.403 684.281H355.675C356.827 686.681 357.931 689.113 358.987 691.577C360.043 694.009 361.099 696.569 362.155 699.257C363.243 701.945 364.347 704.793 365.467 707.801C366.587 710.777 367.787 714.025 369.067 717.545H363.979ZM359.611 705.209C358.587 702.425 357.563 699.737 356.539 697.145C355.547 694.521 354.507 692.009 353.419 689.609C352.299 692.009 351.227 694.521 350.203 697.145C349.211 699.737 348.219 702.425 347.227 705.209H359.611Z" fill="black"/>
<path d="M327.879 684.281H332.535V717.545H327.879V702.185H311.607V717.545H306.951V684.281H311.607V698.153H327.879V684.281Z" fill="black"/>
<path d="M279.107 712.937C278.787 712.169 278.355 711.193 277.811 710.009C277.299 708.825 276.739 707.545 276.131 706.169C275.523 704.793 274.867 703.385 274.163 701.945C273.491 700.473 272.851 699.097 272.243 697.817C271.635 696.505 271.059 695.337 270.515 694.313C270.003 693.289 269.587 692.505 269.267 691.961C268.915 695.737 268.627 699.833 268.403 704.249C268.179 708.633 267.987 713.065 267.827 717.545H263.267C263.395 714.665 263.539 711.769 263.699 708.857C263.859 705.913 264.035 703.033 264.227 700.217C264.451 697.369 264.675 694.601 264.899 691.913C265.155 689.225 265.427 686.681 265.715 684.281H269.795C270.659 685.689 271.587 687.353 272.579 689.273C273.571 691.193 274.563 693.209 275.555 695.321C276.547 697.401 277.507 699.497 278.435 701.609C279.363 703.689 280.211 705.593 280.979 707.321C281.747 705.593 282.595 703.689 283.523 701.609C284.451 699.497 285.411 697.401 286.403 695.321C287.395 693.209 288.387 691.193 289.379 689.273C290.371 687.353 291.299 685.689 292.163 684.281H296.243C297.331 695.001 298.147 706.089 298.691 717.545H294.131C293.971 713.065 293.779 708.633 293.555 704.249C293.331 699.833 293.043 695.737 292.691 691.961C292.371 692.505 291.939 693.289 291.395 694.313C290.883 695.337 290.323 696.505 289.715 697.817C289.107 699.097 288.451 700.473 287.747 701.945C287.075 703.385 286.435 704.793 285.827 706.169C285.219 707.545 284.643 708.825 284.099 710.009C283.587 711.193 283.171 712.169 282.851 712.937H279.107Z" fill="black"/>
<path d="M250.328 684.281H254.984V717.545H250.328V684.281Z" fill="black"/>
<path d="M243.805 684.281C242.813 685.369 241.693 686.585 240.445 687.929C239.197 689.241 237.885 690.601 236.509 692.009C235.165 693.385 233.821 694.745 232.477 696.089C231.133 697.433 229.869 698.681 228.685 699.833C230.061 700.793 231.517 701.977 233.053 703.385C234.589 704.793 236.093 706.297 237.565 707.897C239.037 709.497 240.413 711.129 241.693 712.793C243.005 714.457 244.093 716.041 244.957 717.545H239.485C238.525 716.041 237.421 714.537 236.173 713.033C234.925 711.497 233.597 710.041 232.189 708.665C230.813 707.257 229.405 705.961 227.965 704.777C226.557 703.593 225.181 702.585 223.837 701.753V717.545H219.181V684.281H223.837V698.969C224.957 697.913 226.189 696.729 227.533 695.417C228.877 694.073 230.205 692.729 231.517 691.385C232.829 690.041 234.061 688.761 235.213 687.545C236.397 686.297 237.389 685.209 238.189 684.281H243.805Z" fill="black"/>
<path d="M736.906 746.765C736.466 745.952 736.039 745.105 735.626 744.225C735.226 743.345 734.846 742.458 734.486 741.565C734.139 740.658 733.819 739.758 733.526 738.865C733.232 737.958 732.979 737.072 732.766 736.205H734.146C734.292 736.845 734.479 737.538 734.706 738.285C734.932 739.018 735.186 739.778 735.466 740.565C735.759 741.352 736.079 742.158 736.426 742.985C736.772 743.812 737.146 744.625 737.546 745.425C737.839 744.598 738.099 743.818 738.326 743.085C738.552 742.352 738.759 741.625 738.946 740.905C739.146 740.172 739.332 739.425 739.506 738.665C739.692 737.905 739.886 737.085 740.086 736.205H741.386C740.959 738.138 740.472 740.018 739.926 741.845C739.379 743.672 738.786 745.345 738.146 746.865C737.892 747.465 737.632 747.978 737.366 748.405C737.099 748.845 736.799 749.205 736.466 749.485C736.146 749.765 735.766 749.972 735.326 750.105C734.899 750.238 734.392 750.305 733.806 750.305C733.472 750.305 733.166 750.265 732.886 750.185C732.619 750.105 732.452 750.045 732.386 750.005L732.646 748.925C732.699 748.965 732.846 749.018 733.086 749.085C733.339 749.165 733.599 749.205 733.866 749.205C734.239 749.205 734.572 749.165 734.866 749.085C735.172 749.005 735.446 748.865 735.686 748.665C735.926 748.478 736.139 748.232 736.326 747.925C736.526 747.618 736.719 747.232 736.906 746.765Z" fill="black"/>
<path d="M727.625 736.205V737.305H724.225V746.545H722.925V737.305H719.545V736.205H727.625Z" fill="black"/>
<path d="M705.388 741.367C705.388 740.46 705.514 739.673 705.768 739.007C706.034 738.327 706.374 737.76 706.788 737.307C707.214 736.853 707.694 736.52 708.228 736.307C708.774 736.08 709.334 735.967 709.908 735.967C711.174 735.967 712.181 736.38 712.928 737.207C713.688 738.033 714.068 739.307 714.068 741.027C714.068 741.133 714.061 741.24 714.048 741.347C714.048 741.453 714.041 741.553 714.028 741.647H706.768C706.808 742.913 707.121 743.887 707.708 744.567C708.294 745.247 709.228 745.587 710.508 745.587C711.214 745.587 711.774 745.52 712.188 745.387C712.601 745.253 712.901 745.14 713.088 745.047L713.328 746.167C713.141 746.273 712.788 746.4 712.268 746.547C711.761 746.693 711.161 746.767 710.468 746.767C709.561 746.767 708.788 746.633 708.148 746.367C707.508 746.1 706.981 745.727 706.568 745.247C706.154 744.767 705.854 744.2 705.668 743.547C705.481 742.88 705.388 742.153 705.388 741.367ZM712.728 740.547C712.701 739.467 712.448 738.627 711.968 738.027C711.488 737.427 710.808 737.127 709.928 737.127C709.461 737.127 709.041 737.22 708.668 737.407C708.308 737.593 707.988 737.847 707.708 738.167C707.441 738.473 707.228 738.833 707.068 739.247C706.921 739.66 706.834 740.093 706.808 740.547H712.728Z" fill="black"/>
<path d="M699.996 736.205V737.305H696.596V746.545H695.296V737.305H691.916V736.205H699.996Z" fill="black"/>
<path d="M684.618 737.865C684.218 738.345 683.751 738.952 683.218 739.685C682.698 740.418 682.165 741.192 681.618 742.005C681.085 742.818 680.571 743.625 680.078 744.425C679.585 745.225 679.158 745.932 678.798 746.545H677.578V736.205H678.858V744.485C679.178 743.912 679.571 743.252 680.038 742.505C680.518 741.745 681.025 740.985 681.558 740.225C682.091 739.452 682.625 738.712 683.158 738.005C683.705 737.298 684.211 736.698 684.678 736.205H685.898V746.545H684.618V737.865Z" fill="black"/>
<path d="M668.659 746.767C667.859 746.767 667.152 746.64 666.539 746.387C665.925 746.133 665.412 745.773 664.999 745.307C664.599 744.827 664.292 744.26 664.079 743.607C663.865 742.94 663.759 742.207 663.759 741.407C663.759 740.593 663.865 739.853 664.079 739.187C664.305 738.52 664.625 737.947 665.039 737.467C665.452 736.987 665.952 736.62 666.539 736.367C667.125 736.1 667.785 735.967 668.519 735.967C669.079 735.967 669.599 736.013 670.079 736.107C670.572 736.2 670.952 736.32 671.219 736.467L670.879 737.587C670.612 737.453 670.312 737.347 669.979 737.267C669.645 737.187 669.199 737.147 668.639 737.147C667.492 737.147 666.619 737.52 666.019 738.267C665.432 739 665.139 740.047 665.139 741.407C665.139 742.02 665.205 742.587 665.339 743.107C665.472 743.613 665.685 744.053 665.979 744.427C666.285 744.787 666.672 745.073 667.139 745.287C667.619 745.487 668.199 745.587 668.879 745.587C669.439 745.587 669.905 745.527 670.279 745.407C670.665 745.273 670.945 745.16 671.119 745.067L671.399 746.187C671.159 746.32 670.779 746.447 670.259 746.567C669.752 746.7 669.219 746.767 668.659 746.767Z" fill="black"/>
<path d="M650.019 744.686C650.139 744.779 650.285 744.879 650.459 744.986C650.645 745.093 650.859 745.193 651.099 745.286C651.339 745.379 651.599 745.459 651.879 745.526C652.159 745.579 652.452 745.606 652.759 745.606C653.399 745.606 653.932 745.499 654.359 745.286C654.799 745.059 655.152 744.759 655.419 744.386C655.685 743.999 655.879 743.553 655.999 743.046C656.119 742.526 656.179 741.979 656.179 741.406C656.179 740.046 655.839 739.006 655.159 738.286C654.479 737.553 653.579 737.186 652.459 737.186C651.819 737.186 651.299 737.219 650.899 737.286C650.512 737.339 650.219 737.399 650.019 737.466V744.686ZM650.019 750.246H648.719V736.566C649.105 736.433 649.599 736.306 650.199 736.186C650.799 736.066 651.559 736.006 652.479 736.006C653.239 736.006 653.925 736.133 654.539 736.386C655.165 736.626 655.699 736.979 656.139 737.446C656.592 737.913 656.939 738.479 657.179 739.146C657.432 739.813 657.559 740.566 657.559 741.406C657.559 742.193 657.452 742.919 657.239 743.586C657.039 744.239 656.739 744.806 656.339 745.286C655.939 745.753 655.445 746.119 654.859 746.386C654.285 746.653 653.625 746.786 652.879 746.786C652.199 746.786 651.605 746.693 651.099 746.506C650.605 746.306 650.245 746.119 650.019 745.946V750.246Z" fill="black"/>
<path d="M633.142 741.367C633.142 740.46 633.268 739.673 633.522 739.007C633.788 738.327 634.128 737.76 634.542 737.307C634.968 736.853 635.448 736.52 635.982 736.307C636.528 736.08 637.088 735.967 637.662 735.967C638.928 735.967 639.935 736.38 640.682 737.207C641.442 738.033 641.822 739.307 641.822 741.027C641.822 741.133 641.815 741.24 641.802 741.347C641.802 741.453 641.795 741.553 641.782 741.647H634.522C634.562 742.913 634.875 743.887 635.462 744.567C636.048 745.247 636.982 745.587 638.262 745.587C638.968 745.587 639.528 745.52 639.942 745.387C640.355 745.253 640.655 745.14 640.842 745.047L641.082 746.167C640.895 746.273 640.542 746.4 640.022 746.547C639.515 746.693 638.915 746.767 638.222 746.767C637.315 746.767 636.542 746.633 635.902 746.367C635.262 746.1 634.735 745.727 634.322 745.247C633.908 744.767 633.608 744.2 633.422 743.547C633.235 742.88 633.142 742.153 633.142 741.367ZM640.482 740.547C640.455 739.467 640.202 738.627 639.722 738.027C639.242 737.427 638.562 737.127 637.682 737.127C637.215 737.127 636.795 737.22 636.422 737.407C636.062 737.593 635.742 737.847 635.462 738.167C635.195 738.473 634.982 738.833 634.822 739.247C634.675 739.66 634.588 740.093 634.562 740.547H640.482Z" fill="black"/>
<path d="M622.184 735.986C622.584 735.986 623.03 736.013 623.524 736.066C624.03 736.106 624.504 736.22 624.944 736.406C625.384 736.58 625.75 736.86 626.044 737.246C626.35 737.62 626.504 738.133 626.504 738.786C626.504 739.293 626.357 739.746 626.064 740.146C625.77 740.533 625.37 740.82 624.864 741.006C625.61 741.206 626.15 741.526 626.484 741.966C626.817 742.406 626.984 742.946 626.984 743.586C626.984 744.28 626.844 744.84 626.564 745.266C626.284 745.68 625.91 746 625.444 746.226C624.99 746.44 624.47 746.58 623.884 746.646C623.31 746.713 622.724 746.746 622.124 746.746C621.404 746.746 620.77 746.7 620.224 746.606C619.69 746.513 619.23 746.413 618.844 746.306V736.426C619.177 736.32 619.617 736.22 620.164 736.126C620.71 736.033 621.384 735.986 622.184 735.986ZM620.144 740.546H622.504C623.304 740.546 623.95 740.413 624.444 740.146C624.937 739.88 625.184 739.433 625.184 738.806C625.184 738.406 625.097 738.093 624.924 737.866C624.75 737.64 624.524 737.473 624.244 737.366C623.964 737.246 623.644 737.173 623.284 737.146C622.924 737.106 622.564 737.086 622.204 737.086C621.764 737.086 621.344 737.113 620.944 737.166C620.544 737.206 620.277 737.246 620.144 737.286V740.546ZM620.144 741.626V745.426C620.21 745.453 620.317 745.48 620.464 745.506C620.624 745.52 620.797 745.54 620.984 745.566C621.184 745.58 621.39 745.593 621.604 745.606C621.83 745.62 622.044 745.626 622.244 745.626C622.697 745.626 623.13 745.6 623.544 745.546C623.957 745.493 624.317 745.393 624.624 745.246C624.93 745.086 625.177 744.88 625.364 744.626C625.55 744.36 625.644 744.013 625.644 743.586C625.644 743.213 625.564 742.9 625.404 742.646C625.257 742.393 625.044 742.193 624.764 742.046C624.497 741.9 624.177 741.793 623.804 741.726C623.444 741.66 623.05 741.626 622.624 741.626H620.144Z" fill="black"/>
<path d="M611.397 746.546H610.097V736.206H611.397V746.546ZM611.697 733.086C611.697 733.393 611.604 733.639 611.417 733.826C611.231 733.999 611.004 734.086 610.737 734.086C610.471 734.086 610.244 733.999 610.057 733.826C609.871 733.639 609.777 733.393 609.777 733.086C609.777 732.779 609.871 732.539 610.057 732.366C610.244 732.179 610.471 732.086 610.737 732.086C611.004 732.086 611.231 732.179 611.417 732.366C611.604 732.539 611.697 732.779 611.697 733.086Z" fill="black"/>
<path d="M602.658 746.545H601.358V741.725H595.737V746.545H594.438V736.205H595.737V740.625H601.358V736.205H602.658V746.545Z" fill="black"/>
<path d="M584.078 741.686C584.358 741.059 584.644 740.379 584.938 739.646C585.231 738.899 585.518 738.132 585.798 737.346C586.078 736.546 586.338 735.752 586.578 734.966C586.831 734.166 587.051 733.406 587.238 732.686H588.678C588.411 733.606 588.138 734.479 587.858 735.306C587.591 736.119 587.311 736.912 587.018 737.686C586.738 738.446 586.444 739.199 586.138 739.946C585.831 740.679 585.511 741.419 585.178 742.166C584.964 742.646 584.731 743.152 584.478 743.686C584.224 744.219 583.911 744.712 583.538 745.166C583.164 745.606 582.704 745.972 582.158 746.266C581.624 746.546 580.964 746.686 580.178 746.686C579.831 746.686 579.524 746.646 579.258 746.566C579.004 746.499 578.818 746.432 578.698 746.366L578.958 745.246C579.051 745.299 579.204 745.366 579.418 745.446C579.631 745.512 579.911 745.546 580.258 745.546C580.711 745.546 581.104 745.479 581.438 745.346C581.784 745.199 582.078 745.012 582.318 744.786C582.571 744.559 582.791 744.292 582.978 743.986C583.164 743.679 583.331 743.359 583.478 743.026C582.864 742.092 582.291 741.152 581.758 740.206C581.238 739.259 580.758 738.339 580.318 737.446C579.891 736.552 579.498 735.706 579.138 734.906C578.791 734.092 578.484 733.352 578.218 732.686H579.738C580.191 733.912 580.778 735.312 581.498 736.886C582.231 738.459 583.091 740.059 584.078 741.686Z" fill="black"/>
<path d="M564.207 741.387C564.207 742.2 564.087 742.94 563.847 743.607C563.62 744.273 563.293 744.84 562.867 745.307C562.453 745.773 561.96 746.14 561.387 746.407C560.813 746.66 560.18 746.787 559.487 746.787C558.793 746.787 558.16 746.66 557.587 746.407C557.013 746.14 556.513 745.773 556.087 745.307C555.673 744.84 555.347 744.273 555.107 743.607C554.88 742.94 554.767 742.2 554.767 741.387C554.767 740.573 554.88 739.833 555.107 739.167C555.347 738.5 555.673 737.933 556.087 737.467C556.513 736.987 557.013 736.62 557.587 736.367C558.16 736.1 558.793 735.967 559.487 735.967C560.18 735.967 560.813 736.1 561.387 736.367C561.96 736.62 562.453 736.987 562.867 737.467C563.293 737.933 563.62 738.5 563.847 739.167C564.087 739.833 564.207 740.573 564.207 741.387ZM562.827 741.387C562.827 740.093 562.527 739.067 561.927 738.307C561.327 737.533 560.513 737.147 559.487 737.147C558.46 737.147 557.647 737.533 557.047 738.307C556.447 739.067 556.147 740.093 556.147 741.387C556.147 742.68 556.447 743.707 557.047 744.467C557.647 745.227 558.46 745.607 559.487 745.607C560.513 745.607 561.327 745.227 561.927 744.467C562.527 743.707 562.827 742.68 562.827 741.387Z" fill="black"/>
<path d="M549.358 737.305H544.737V746.545H543.438V736.205H549.358V737.305Z" fill="black"/>
<path d="M536.617 741.387C536.617 742.2 536.497 742.94 536.257 743.607C536.03 744.273 535.703 744.84 535.277 745.307C534.863 745.773 534.37 746.14 533.797 746.407C533.223 746.66 532.59 746.787 531.897 746.787C531.203 746.787 530.57 746.66 529.997 746.407C529.423 746.14 528.923 745.773 528.497 745.307C528.083 744.84 527.757 744.273 527.517 743.607C527.29 742.94 527.177 742.2 527.177 741.387C527.177 740.573 527.29 739.833 527.517 739.167C527.757 738.5 528.083 737.933 528.497 737.467C528.923 736.987 529.423 736.62 529.997 736.367C530.57 736.1 531.203 735.967 531.897 735.967C532.59 735.967 533.223 736.1 533.797 736.367C534.37 736.62 534.863 736.987 535.277 737.467C535.703 737.933 536.03 738.5 536.257 739.167C536.497 739.833 536.617 740.573 536.617 741.387ZM535.237 741.387C535.237 740.093 534.937 739.067 534.337 738.307C533.737 737.533 532.923 737.147 531.897 737.147C530.87 737.147 530.057 737.533 529.457 738.307C528.857 739.067 528.557 740.093 528.557 741.387C528.557 742.68 528.857 743.707 529.457 744.467C530.057 745.227 530.87 745.607 531.897 745.607C532.923 745.607 533.737 745.227 534.337 744.467C534.937 743.707 535.237 742.68 535.237 741.387Z" fill="black"/>
<path d="M514.031 746.545V736.205H515.331V740.985C515.705 740.625 516.118 740.225 516.571 739.785C517.038 739.332 517.491 738.885 517.931 738.445C518.371 737.992 518.778 737.572 519.151 737.185C519.538 736.785 519.845 736.458 520.071 736.205H521.631C521.325 736.552 520.958 736.945 520.531 737.385C520.105 737.812 519.665 738.245 519.211 738.685C518.771 739.125 518.338 739.552 517.911 739.965C517.498 740.378 517.131 740.732 516.811 741.025C517.265 741.318 517.745 741.685 518.251 742.125C518.758 742.552 519.245 743.018 519.711 743.525C520.191 744.018 520.631 744.532 521.031 745.065C521.445 745.585 521.791 746.078 522.071 746.545H520.531C520.211 746.052 519.831 745.552 519.391 745.045C518.965 744.538 518.511 744.058 518.031 743.605C517.565 743.138 517.091 742.718 516.611 742.345C516.145 741.972 515.718 741.672 515.331 741.445V746.545H514.031Z" fill="black"/>
<path d="M499.797 736.205H501.097V740.345C501.337 740.278 501.69 740.212 502.157 740.145C502.637 740.065 503.13 740.025 503.637 740.025C504.197 740.025 504.724 740.085 505.217 740.205C505.71 740.325 506.144 740.518 506.517 740.785C506.89 741.052 507.184 741.398 507.397 741.825C507.624 742.252 507.737 742.772 507.737 743.385C507.737 743.998 507.624 744.518 507.397 744.945C507.184 745.372 506.884 745.725 506.497 746.005C506.124 746.272 505.67 746.465 505.137 746.585C504.617 746.705 504.057 746.765 503.457 746.765C503.097 746.765 502.73 746.752 502.357 746.725C501.997 746.698 501.657 746.665 501.337 746.625C501.017 746.585 500.724 746.538 500.457 746.485C500.19 746.432 499.97 746.372 499.797 746.305V736.205ZM503.457 745.605C504.35 745.605 505.064 745.438 505.597 745.105C506.13 744.758 506.397 744.185 506.397 743.385C506.397 743.012 506.324 742.685 506.177 742.405C506.03 742.125 505.83 741.898 505.577 741.725C505.337 741.538 505.044 741.405 504.697 741.325C504.364 741.232 503.997 741.185 503.597 741.185C503.157 741.185 502.717 741.205 502.277 741.245C501.837 741.285 501.444 741.365 501.097 741.485V745.405C501.27 745.445 501.577 745.492 502.017 745.545C502.457 745.585 502.937 745.605 503.457 745.605Z" fill="black"/>
<path d="M492.273 736.205V745.445H493.453V749.405H492.193V746.545H484.293V736.205H485.593V745.445H490.973V736.205H492.273Z" fill="black"/>
<path d="M475.575 737.865C475.175 738.345 474.708 738.952 474.175 739.685C473.655 740.418 473.122 741.192 472.575 742.005C472.042 742.818 471.528 743.625 471.035 744.425C470.542 745.225 470.115 745.932 469.755 746.545H468.535V736.205H469.815V744.485C470.135 743.912 470.528 743.252 470.995 742.505C471.475 741.745 471.982 740.985 472.515 740.225C473.048 739.452 473.582 738.712 474.115 738.005C474.662 737.298 475.168 736.698 475.635 736.205H476.855V746.545H475.575V737.865Z" fill="black"/>
<path d="M455.993 737.305V737.725C455.993 738.125 455.986 738.565 455.973 739.045C455.96 739.512 455.933 739.992 455.893 740.485C455.853 740.978 455.786 741.472 455.693 741.965C455.613 742.445 455.507 742.898 455.373 743.325C455.227 743.765 455.04 744.185 454.813 744.585C454.6 744.972 454.34 745.318 454.033 745.625C453.74 745.918 453.393 746.165 452.993 746.365C452.606 746.552 452.167 746.672 451.673 746.725L451.493 745.645C452.16 745.498 452.693 745.225 453.093 744.825C453.507 744.425 453.846 743.858 454.113 743.125C454.38 742.392 454.546 741.552 454.613 740.605C454.693 739.645 454.733 738.598 454.733 737.465V736.205H461.093V746.545H459.793V737.305H455.993Z" fill="black"/>
<path d="M446.113 741.387C446.113 742.2 445.993 742.94 445.753 743.607C445.526 744.273 445.2 744.84 444.773 745.307C444.36 745.773 443.866 746.14 443.293 746.407C442.72 746.66 442.086 746.787 441.393 746.787C440.7 746.787 440.066 746.66 439.493 746.407C438.92 746.14 438.42 745.773 437.993 745.307C437.58 744.84 437.253 744.273 437.013 743.607C436.786 742.94 436.673 742.2 436.673 741.387C436.673 740.573 436.786 739.833 437.013 739.167C437.253 738.5 437.58 737.933 437.993 737.467C438.42 736.987 438.92 736.62 439.493 736.367C440.066 736.1 440.7 735.967 441.393 735.967C442.086 735.967 442.72 736.1 443.293 736.367C443.866 736.62 444.36 736.987 444.773 737.467C445.2 737.933 445.526 738.5 445.753 739.167C445.993 739.833 446.113 740.573 446.113 741.387ZM444.733 741.387C444.733 740.093 444.433 739.067 443.833 738.307C443.233 737.533 442.42 737.147 441.393 737.147C440.366 737.147 439.553 737.533 438.953 738.307C438.353 739.067 438.053 740.093 438.053 741.387C438.053 742.68 438.353 743.707 438.953 744.467C439.553 745.227 440.366 745.607 441.393 745.607C442.42 745.607 443.233 745.227 443.833 744.467C444.433 743.707 444.733 742.68 444.733 741.387Z" fill="black"/>
<path d="M431.281 736.205V737.305H427.881V746.545H426.581V737.305H423.201V736.205H431.281Z" fill="black"/>
<path d="M413.705 745.607C414.211 745.607 414.651 745.593 415.025 745.567C415.411 745.527 415.738 745.48 416.005 745.427V741.787C415.858 741.72 415.625 741.653 415.305 741.587C414.985 741.507 414.545 741.467 413.985 741.467C413.665 741.467 413.331 741.493 412.985 741.547C412.638 741.587 412.318 741.687 412.025 741.847C411.731 741.993 411.491 742.2 411.305 742.467C411.118 742.733 411.025 743.087 411.025 743.527C411.025 743.913 411.085 744.24 411.205 744.507C411.338 744.773 411.518 744.987 411.745 745.147C411.985 745.307 412.265 745.427 412.585 745.507C412.918 745.573 413.291 745.607 413.705 745.607ZM413.585 735.967C414.265 735.967 414.838 736.067 415.305 736.267C415.785 736.453 416.171 736.72 416.465 737.067C416.758 737.4 416.971 737.8 417.105 738.267C417.238 738.733 417.305 739.24 417.305 739.787V746.307C417.171 746.347 416.978 746.393 416.725 746.447C416.471 746.487 416.178 746.533 415.845 746.587C415.511 746.64 415.138 746.68 414.725 746.707C414.325 746.747 413.911 746.767 413.485 746.767C412.938 746.767 412.431 746.707 411.965 746.587C411.511 746.467 411.111 746.28 410.765 746.027C410.431 745.76 410.165 745.427 409.965 745.027C409.778 744.613 409.685 744.113 409.685 743.527C409.685 742.967 409.791 742.487 410.005 742.087C410.218 741.687 410.518 741.36 410.905 741.107C411.291 740.84 411.751 740.647 412.285 740.527C412.818 740.407 413.398 740.347 414.025 740.347C414.211 740.347 414.405 740.36 414.605 740.387C414.818 740.4 415.018 740.427 415.205 740.467C415.405 740.493 415.571 740.527 415.705 740.567C415.851 740.593 415.951 740.62 416.005 740.647V740.007C416.005 739.647 415.978 739.3 415.925 738.967C415.871 738.62 415.751 738.313 415.565 738.047C415.391 737.767 415.138 737.547 414.805 737.387C414.485 737.213 414.058 737.127 413.525 737.127C412.765 737.127 412.198 737.18 411.825 737.287C411.451 737.393 411.178 737.48 411.005 737.547L410.825 736.407C411.051 736.3 411.398 736.2 411.865 736.107C412.345 736.013 412.918 735.967 413.585 735.967Z" fill="black"/>
<path d="M403.013 746.546C402.559 745.852 402.046 745.166 401.473 744.486C400.913 743.806 400.319 743.166 399.693 742.566C399.066 741.966 398.426 741.419 397.773 740.926C397.133 740.432 396.513 740.019 395.913 739.686V746.546H394.553V732.686H395.913V739.146C396.419 738.692 396.979 738.172 397.593 737.586C398.219 736.986 398.833 736.386 399.433 735.786C400.046 735.186 400.619 734.612 401.153 734.066C401.686 733.519 402.113 733.059 402.433 732.686H404.073C403.686 733.099 403.219 733.592 402.673 734.166C402.126 734.726 401.546 735.306 400.933 735.906C400.319 736.506 399.706 737.099 399.093 737.686C398.493 738.259 397.953 738.766 397.473 739.206C397.859 739.446 398.273 739.746 398.713 740.106C399.166 740.452 399.619 740.839 400.073 741.266C400.539 741.679 400.993 742.119 401.433 742.586C401.886 743.039 402.306 743.499 402.693 743.966C403.093 744.432 403.446 744.886 403.753 745.326C404.073 745.766 404.333 746.172 404.533 746.546H403.013Z" fill="black"/>
<path d="M379.101 741.387C379.101 742.2 378.981 742.94 378.741 743.607C378.514 744.273 378.188 744.84 377.761 745.307C377.348 745.773 376.854 746.14 376.281 746.407C375.708 746.66 375.074 746.787 374.381 746.787C373.688 746.787 373.054 746.66 372.481 746.407C371.908 746.14 371.408 745.773 370.981 745.307C370.568 744.84 370.241 744.273 370.001 743.607C369.774 742.94 369.661 742.2 369.661 741.387C369.661 740.573 369.774 739.833 370.001 739.167C370.241 738.5 370.568 737.933 370.981 737.467C371.408 736.987 371.908 736.62 372.481 736.367C373.054 736.1 373.688 735.967 374.381 735.967C375.074 735.967 375.708 736.1 376.281 736.367C376.854 736.62 377.348 736.987 377.761 737.467C378.188 737.933 378.514 738.5 378.741 739.167C378.981 739.833 379.101 740.573 379.101 741.387ZM377.721 741.387C377.721 740.093 377.421 739.067 376.821 738.307C376.221 737.533 375.408 737.147 374.381 737.147C373.354 737.147 372.541 737.533 371.941 738.307C371.341 739.067 371.041 740.093 371.041 741.387C371.041 742.68 371.341 743.707 371.941 744.467C372.541 745.227 373.354 745.607 374.381 745.607C375.408 745.607 376.221 745.227 376.821 744.467C377.421 743.707 377.721 742.68 377.721 741.387Z" fill="black"/>
<path d="M364.252 737.305H359.632V746.545H358.332V736.205H364.252V737.305Z" fill="black"/>
<path d="M351.511 741.387C351.511 742.2 351.391 742.94 351.151 743.607C350.925 744.273 350.598 744.84 350.171 745.307C349.758 745.773 349.265 746.14 348.691 746.407C348.118 746.66 347.485 746.787 346.791 746.787C346.098 746.787 345.465 746.66 344.891 746.407C344.318 746.14 343.818 745.773 343.391 745.307C342.978 744.84 342.651 744.273 342.411 743.607C342.185 742.94 342.071 742.2 342.071 741.387C342.071 740.573 342.185 739.833 342.411 739.167C342.651 738.5 342.978 737.933 343.391 737.467C343.818 736.987 344.318 736.62 344.891 736.367C345.465 736.1 346.098 735.967 346.791 735.967C347.485 735.967 348.118 736.1 348.691 736.367C349.265 736.62 349.758 736.987 350.171 737.467C350.598 737.933 350.925 738.5 351.151 739.167C351.391 739.833 351.511 740.573 351.511 741.387ZM350.131 741.387C350.131 740.093 349.831 739.067 349.231 738.307C348.631 737.533 347.818 737.147 346.791 737.147C345.765 737.147 344.951 737.533 344.351 738.307C343.751 739.067 343.451 740.093 343.451 741.387C343.451 742.68 343.751 743.707 344.351 744.467C344.951 745.227 345.765 745.607 346.791 745.607C347.818 745.607 348.631 745.227 349.231 744.467C349.831 743.707 350.131 742.68 350.131 741.387Z" fill="black"/>
<path d="M328.926 746.545V736.205H330.226V740.985C330.599 740.625 331.012 740.225 331.466 739.785C331.932 739.332 332.386 738.885 332.826 738.445C333.266 737.992 333.672 737.572 334.046 737.185C334.432 736.785 334.739 736.458 334.966 736.205H336.526C336.219 736.552 335.852 736.945 335.426 737.385C334.999 737.812 334.559 738.245 334.106 738.685C333.666 739.125 333.232 739.552 332.806 739.965C332.392 740.378 332.026 740.732 331.706 741.025C332.159 741.318 332.639 741.685 333.146 742.125C333.652 742.552 334.139 743.018 334.606 743.525C335.086 744.018 335.526 744.532 335.926 745.065C336.339 745.585 336.686 746.078 336.966 746.545H335.426C335.106 746.052 334.726 745.552 334.286 745.045C333.859 744.538 333.406 744.058 332.926 743.605C332.459 743.138 331.986 742.718 331.506 742.345C331.039 741.972 330.612 741.672 330.226 741.445V746.545H328.926Z" fill="black"/>
<path d="M314.691 736.205H315.991V740.345C316.231 740.278 316.585 740.212 317.051 740.145C317.531 740.065 318.025 740.025 318.531 740.025C319.091 740.025 319.618 740.085 320.111 740.205C320.605 740.325 321.038 740.518 321.411 740.785C321.785 741.052 322.078 741.398 322.291 741.825C322.518 742.252 322.631 742.772 322.631 743.385C322.631 743.998 322.518 744.518 322.291 744.945C322.078 745.372 321.778 745.725 321.391 746.005C321.018 746.272 320.565 746.465 320.031 746.585C319.511 746.705 318.951 746.765 318.351 746.765C317.991 746.765 317.625 746.752 317.251 746.725C316.891 746.698 316.551 746.665 316.231 746.625C315.911 746.585 315.618 746.538 315.351 746.485C315.085 746.432 314.865 746.372 314.691 746.305V736.205ZM318.351 745.605C319.245 745.605 319.958 745.438 320.491 745.105C321.025 744.758 321.291 744.185 321.291 743.385C321.291 743.012 321.218 742.685 321.071 742.405C320.925 742.125 320.725 741.898 320.471 741.725C320.231 741.538 319.938 741.405 319.591 741.325C319.258 741.232 318.891 741.185 318.491 741.185C318.051 741.185 317.611 741.205 317.171 741.245C316.731 741.285 316.338 741.365 315.991 741.485V745.405C316.165 745.445 316.471 745.492 316.911 745.545C317.351 745.585 317.831 745.605 318.351 745.605Z" fill="black"/>
<path d="M305.772 746.767C304.972 746.767 304.265 746.64 303.652 746.387C303.039 746.133 302.525 745.773 302.112 745.307C301.712 744.827 301.405 744.26 301.192 743.607C300.979 742.94 300.872 742.207 300.872 741.407C300.872 740.593 300.979 739.853 301.192 739.187C301.419 738.52 301.739 737.947 302.152 737.467C302.565 736.987 303.065 736.62 303.652 736.367C304.239 736.1 304.899 735.967 305.632 735.967C306.192 735.967 306.712 736.013 307.192 736.107C307.685 736.2 308.065 736.32 308.332 736.467L307.992 737.587C307.725 737.453 307.425 737.347 307.092 737.267C306.759 737.187 306.312 737.147 305.752 737.147C304.605 737.147 303.732 737.52 303.132 738.267C302.545 739 302.252 740.047 302.252 741.407C302.252 742.02 302.319 742.587 302.452 743.107C302.585 743.613 302.799 744.053 303.092 744.427C303.399 744.787 303.785 745.073 304.252 745.287C304.732 745.487 305.312 745.587 305.992 745.587C306.552 745.587 307.019 745.527 307.392 745.407C307.779 745.273 308.059 745.16 308.232 745.067L308.512 746.187C308.272 746.32 307.892 746.447 307.372 746.567C306.865 746.7 306.332 746.767 305.772 746.767Z" fill="black"/>
<path d="M294.052 746.545H292.752V741.725H287.132V746.545H285.832V736.205H287.132V740.625H292.752V736.205H294.052V746.545Z" fill="black"/>
<path d="M278.385 746.545H277.085V736.205H278.385V746.545ZM276.945 733.085C276.945 733.378 276.859 733.612 276.685 733.785C276.512 733.958 276.292 734.045 276.025 734.045C275.759 734.045 275.539 733.958 275.365 733.785C275.192 733.612 275.105 733.378 275.105 733.085C275.105 732.792 275.192 732.558 275.365 732.385C275.539 732.212 275.759 732.125 276.025 732.125C276.292 732.125 276.512 732.212 276.685 732.385C276.859 732.558 276.945 732.792 276.945 733.085ZM280.385 733.085C280.385 733.378 280.299 733.612 280.125 733.785C279.952 733.958 279.732 734.045 279.465 734.045C279.199 734.045 278.979 733.958 278.805 733.785C278.632 733.612 278.545 733.378 278.545 733.085C278.545 732.792 278.632 732.558 278.805 732.385C278.979 732.212 279.199 732.125 279.465 732.125C279.732 732.125 279.952 732.212 280.125 732.385C280.299 732.558 280.385 732.792 280.385 733.085Z" fill="black"/>
<path d="M266.169 745.607C266.676 745.607 267.116 745.593 267.489 745.567C267.876 745.527 268.203 745.48 268.469 745.427V741.787C268.323 741.72 268.089 741.653 267.769 741.587C267.449 741.507 267.009 741.467 266.449 741.467C266.129 741.467 265.796 741.493 265.449 741.547C265.103 741.587 264.783 741.687 264.489 741.847C264.196 741.993 263.956 742.2 263.769 742.467C263.583 742.733 263.489 743.087 263.489 743.527C263.489 743.913 263.549 744.24 263.669 744.507C263.803 744.773 263.983 744.987 264.209 745.147C264.449 745.307 264.729 745.427 265.049 745.507C265.383 745.573 265.756 745.607 266.169 745.607ZM266.049 735.967C266.729 735.967 267.303 736.067 267.769 736.267C268.249 736.453 268.636 736.72 268.929 737.067C269.223 737.4 269.436 737.8 269.569 738.267C269.703 738.733 269.769 739.24 269.769 739.787V746.307C269.636 746.347 269.443 746.393 269.189 746.447C268.936 746.487 268.643 746.533 268.309 746.587C267.976 746.64 267.603 746.68 267.189 746.707C266.789 746.747 266.376 746.767 265.949 746.767C265.403 746.767 264.896 746.707 264.429 746.587C263.976 746.467 263.576 746.28 263.229 746.027C262.896 745.76 262.629 745.427 262.429 745.027C262.243 744.613 262.149 744.113 262.149 743.527C262.149 742.967 262.256 742.487 262.469 742.087C262.683 741.687 262.983 741.36 263.369 741.107C263.756 740.84 264.216 740.647 264.749 740.527C265.283 740.407 265.863 740.347 266.489 740.347C266.676 740.347 266.869 740.36 267.069 740.387C267.283 740.4 267.483 740.427 267.669 740.467C267.869 740.493 268.036 740.527 268.169 740.567C268.316 740.593 268.416 740.62 268.469 740.647V740.007C268.469 739.647 268.443 739.3 268.389 738.967C268.336 738.62 268.216 738.313 268.029 738.047C267.856 737.767 267.603 737.547 267.269 737.387C266.949 737.213 266.523 737.127 265.989 737.127C265.229 737.127 264.663 737.18 264.289 737.287C263.916 737.393 263.643 737.48 263.469 737.547L263.289 736.407C263.516 736.3 263.863 736.2 264.329 736.107C264.809 736.013 265.383 735.967 266.049 735.967Z" fill="black"/>
<path d="M248.55 744.686C248.67 744.779 248.817 744.879 248.99 744.986C249.177 745.093 249.39 745.193 249.63 745.286C249.87 745.379 250.13 745.459 250.41 745.526C250.69 745.579 250.983 745.606 251.29 745.606C251.93 745.606 252.463 745.499 252.89 745.286C253.33 745.059 253.683 744.759 253.95 744.386C254.217 743.999 254.41 743.553 254.53 743.046C254.65 742.526 254.71 741.979 254.71 741.406C254.71 740.046 254.37 739.006 253.69 738.286C253.01 737.553 252.11 737.186 250.99 737.186C250.35 737.186 249.83 737.219 249.43 737.286C249.043 737.339 248.75 737.399 248.55 737.466V744.686ZM248.55 750.246H247.25V736.566C247.637 736.433 248.13 736.306 248.73 736.186C249.33 736.066 250.09 736.006 251.01 736.006C251.77 736.006 252.457 736.133 253.07 736.386C253.697 736.626 254.23 736.979 254.67 737.446C255.123 737.913 255.47 738.479 255.71 739.146C255.963 739.813 256.09 740.566 256.09 741.406C256.09 742.193 255.983 742.919 255.77 743.586C255.57 744.239 255.27 744.806 254.87 745.286C254.47 745.753 253.977 746.119 253.39 746.386C252.817 746.653 252.157 746.786 251.41 746.786C250.73 746.786 250.137 746.693 249.63 746.506C249.137 746.306 248.777 746.119 248.55 745.946V750.246Z" fill="black"/>
<path d="M233.133 746.545V736.205H234.433V740.985C234.806 740.625 235.219 740.225 235.673 739.785C236.139 739.332 236.593 738.885 237.033 738.445C237.473 737.992 237.879 737.572 238.253 737.185C238.639 736.785 238.946 736.458 239.173 736.205H240.733C240.426 736.552 240.059 736.945 239.633 737.385C239.206 737.812 238.766 738.245 238.313 738.685C237.873 739.125 237.439 739.552 237.013 739.965C236.599 740.378 236.233 740.732 235.913 741.025C236.366 741.318 236.846 741.685 237.353 742.125C237.859 742.552 238.346 743.018 238.813 743.525C239.293 744.018 239.733 744.532 240.133 745.065C240.546 745.585 240.893 746.078 241.173 746.545H239.633C239.313 746.052 238.933 745.552 238.493 745.045C238.066 744.538 237.613 744.058 237.133 743.605C236.666 743.138 236.193 742.718 235.713 742.345C235.246 741.972 234.819 741.672 234.433 741.445V746.545H233.133Z" fill="black"/>
<path d="M222.773 741.686C223.053 741.059 223.34 740.379 223.633 739.646C223.926 738.899 224.213 738.132 224.493 737.346C224.773 736.546 225.033 735.752 225.273 734.966C225.526 734.166 225.746 733.406 225.933 732.686H227.373C227.106 733.606 226.833 734.479 226.553 735.306C226.286 736.119 226.006 736.912 225.713 737.686C225.433 738.446 225.14 739.199 224.833 739.946C224.526 740.679 224.206 741.419 223.873 742.166C223.66 742.646 223.426 743.152 223.173 743.686C222.92 744.219 222.606 744.712 222.233 745.166C221.86 745.606 221.4 745.972 220.853 746.266C220.32 746.546 219.66 746.686 218.873 746.686C218.526 746.686 218.22 746.646 217.953 746.566C217.7 746.499 217.513 746.432 217.393 746.366L217.653 745.246C217.746 745.299 217.9 745.366 218.113 745.446C218.326 745.512 218.606 745.546 218.953 745.546C219.406 745.546 219.8 745.479 220.133 745.346C220.48 745.199 220.773 745.012 221.013 744.786C221.266 744.559 221.486 744.292 221.673 743.986C221.86 743.679 222.026 743.359 222.173 743.026C221.56 742.092 220.986 741.152 220.453 740.206C219.933 739.259 219.453 738.339 219.013 737.446C218.586 736.552 218.193 735.706 217.833 734.906C217.486 734.092 217.18 733.352 216.913 732.686H218.433C218.886 733.912 219.473 735.312 220.193 736.886C220.926 738.459 221.786 740.059 222.773 741.686Z" fill="black"/>
</svg>
