<svg width="960" height="960" viewBox="0 0 960 960" fill="none" xmlns="http://www.w3.org/2000/svg">
<path d="M280.327 432.359C275.319 438.116 272.265 445.652 272.265 453.922C272.561 472.08 274.762 490.2 274.954 508.352C275.351 525.271 270.341 541.159 264.25 556.66C262.219 560.944 260.024 565.134 257.826 569.332L251.362 568.012C245.545 566.832 241.762 561.106 242.924 555.217C243.939 550.057 248.42 546.481 253.418 546.452L255.77 546.711L250.522 502.311C248.807 482.544 238.741 465.203 223.908 453.92C221.358 451.979 218.657 450.208 215.847 448.643V606.33H251.782C254.47 621.105 262.497 633.976 273.779 642.817C276.465 644.689 278.711 647.166 280.326 650.045C281.944 647.165 284.19 644.689 286.876 642.817C298.158 633.98 306.186 621.104 308.873 606.33H344.802V448.65C341.996 450.212 339.295 451.984 336.746 453.927C321.916 465.21 311.845 482.55 310.128 502.318L304.882 546.717L307.234 546.459C312.232 546.487 316.71 550.064 317.731 555.223C318.893 561.113 315.11 566.839 309.293 568.018L302.826 569.339C300.629 565.139 298.436 560.951 296.403 556.666C290.312 541.166 285.301 525.278 285.696 508.358C285.888 490.204 288.089 472.085 288.385 453.929C288.387 445.653 285.336 438.117 280.328 432.359H280.327ZM226.593 471.357C233.545 479.626 238.213 489.929 239.606 501.249L243.931 537.866C238.424 540.641 234.252 545.736 232.679 551.898H226.595V471.356L226.593 471.357ZM334.056 471.357V551.899H327.975C326.402 545.74 322.228 540.642 316.723 537.867L321.048 501.25C322.436 489.929 327.107 479.626 334.056 471.356V471.357ZM280.327 544.971C283.215 554.533 287.188 563.616 292.122 572.06C287.428 573.504 283.339 576.317 280.327 580.094C277.316 576.317 273.227 573.504 268.531 572.06C273.468 563.619 277.441 554.536 280.327 544.971ZM226.593 562.788H232.677C234.599 570.304 240.386 576.238 247.749 578.309L252.914 579.499C251.529 584.579 250.772 589.928 250.772 595.446H226.593L226.593 562.788ZM327.976 562.788H334.057V595.443H309.878C309.878 589.928 309.121 584.579 307.736 579.496L312.901 578.307C320.264 576.239 326.057 570.304 327.976 562.788L327.976 562.788ZM263.406 582.009C269.925 582.947 274.95 588.586 274.95 595.445L261.517 595.446C261.517 590.779 262.201 586.283 263.406 582.009L263.406 582.009ZM297.243 582.009C298.451 586.283 299.132 590.781 299.132 595.445H285.696C285.698 588.586 290.724 582.948 297.243 582.009H297.243ZM262.735 606.335H274.95V629.254C269.024 622.975 264.717 615.092 262.735 606.335ZM285.698 606.335H297.914C295.937 615.091 291.63 622.974 285.698 629.254V606.335Z" fill="#4F1ED9"/>
<path fill-rule="evenodd" clip-rule="evenodd" d="M542.614 211.99C549.775 213.264 556.633 215.709 563.226 219.339C569.043 222.542 575.902 227.577 575.902 228.644C575.902 229.086 573.01 232.818 569.477 236.938C565.943 241.056 562.959 244.561 562.846 244.726C562.734 244.89 560.729 243.685 558.392 242.047C544.605 232.393 529.594 229.238 515.114 232.949C507.015 235.025 501.126 238.41 495.006 244.506C490.813 248.684 489.033 251.198 486.371 256.708C479.922 270.055 477.495 283.473 477.559 305.419C477.595 317.35 477.928 322.383 479.128 329.078C483.717 354.675 494.293 369.586 511.976 375.387C520.392 378.148 533.051 378.309 541.205 375.758C548.077 373.607 554.26 370.527 560.249 366.269C562.798 364.458 565.211 363.085 565.611 363.219C566.666 363.572 578.107 378.083 578.111 379.075C578.12 380.907 564.393 390.573 557.688 393.458C537.173 402.282 510.725 401.514 491.995 391.549C470.11 379.906 457.501 360.296 451.827 329.076C449.611 316.887 449.614 293.212 451.833 280.94C456.013 257.829 464.102 241.808 478.295 228.532C484.854 222.397 489.919 219.09 497.475 216.01C511.387 210.339 526.014 209.036 542.614 211.99ZM310.334 279.205C310.334 335.921 310.49 345.425 311.498 350.362C314.327 364.214 321.387 372.177 334.331 376.118C340.482 377.99 355.414 377.991 361.603 376.12C367.73 374.267 374.149 370.718 376.758 367.741C379.637 364.454 382.837 357.968 384.526 351.994C385.792 347.519 385.903 342.613 386.134 280.468L386.382 213.746H399.259H412.135L412.12 278.25C412.103 352.991 411.995 354.479 405.591 367.889C398.906 381.889 385.688 392.526 369.349 397.054C361.499 399.229 349.604 400.137 340.026 399.289C312.475 396.851 293.735 382.092 286.55 357.169C284.969 351.688 284.948 350.833 284.708 282.685L284.465 213.746H297.399H310.334V279.205ZM641.75 280.098C641.994 339.49 642.154 346.94 643.269 351.125C646.911 364.787 653.899 372.38 666.269 376.12C672.453 377.99 687.391 377.99 693.532 376.12C703.586 373.059 709.208 368.598 713.092 360.597C718.065 350.35 717.831 354.101 718.099 280.468L718.342 213.746H731.219H744.095V278.707C744.095 350.169 744.092 350.233 739.572 362.753C733.369 379.931 719.295 392.376 700.661 397.161C692.393 399.283 681.284 400.111 672.041 399.294C643.299 396.751 624.218 380.945 617.79 354.356C616.28 348.114 616.227 345.994 615.938 280.837L615.64 213.746H628.558H641.477L641.75 280.098ZM421.544 519.999L421.356 612.596L408.631 612.799L395.906 613.001V520.202V427.403H408.819H421.731L421.544 519.999ZM539.121 428.546C550.792 430.708 556.931 433.322 565.319 439.702C572.327 445.031 576.933 450.745 580.73 458.823C586.928 472.007 586.533 466.443 586.786 544.044L587.011 613.001L574.264 612.799L561.517 612.596L561.148 544.951L560.779 477.305L558.752 471.561C555.23 461.588 550.787 456.393 542.425 452.471C536.627 449.752 531.695 448.839 522.873 448.853C506.138 448.879 494.97 454.95 489.527 466.982C485.266 476.399 485.166 478.268 485.166 548.762V613.001L472.441 612.799L459.716 612.596L459.496 549.386C459.258 480.992 459.441 476.651 463.029 465.81C465.84 457.317 469.549 451.209 475.981 444.474C484.177 435.894 492.546 431.451 505.353 428.88C514.092 427.125 530.577 426.962 539.121 428.546ZM697.874 428.891C703.406 429.989 707.391 431.374 713.105 434.183C719.745 437.447 721.748 438.894 727.217 444.375C732.541 449.71 734.149 451.913 736.982 457.75C738.847 461.593 741.12 467.398 742.033 470.651C743.691 476.561 743.693 476.627 743.923 544.766L744.153 612.966H731.244H718.335L718.084 546.244C717.807 472.623 717.987 475.524 713.078 465.778C710.119 459.904 705.595 455.464 699.759 452.706C693.507 449.752 688.774 448.842 679.666 448.842C659.816 448.842 648.521 456.869 643.594 474.477C641.992 480.204 641.973 480.934 641.73 546.631L641.483 613.001L628.795 612.798L616.106 612.596V546.429C616.106 485.165 616.206 479.796 617.452 473.978C621.724 454.037 633.53 439.024 650.311 432.19C662.165 427.363 682.929 425.923 697.874 428.891Z" fill="#072942"/>
<path d="M382.584 700.175H387.24V715.727C386.856 715.855 386.296 715.999 385.56 716.159C384.856 716.319 384.024 716.479 383.064 716.639C382.136 716.799 381.112 716.927 379.992 717.023C378.872 717.151 377.736 717.215 376.584 717.215C374.248 717.215 372.12 716.831 370.2 716.063C368.28 715.295 366.632 714.175 365.256 712.703C363.88 711.231 362.808 709.423 362.04 707.279C361.304 705.135 360.936 702.671 360.936 699.887C360.936 697.103 361.352 694.639 362.184 692.495C363.048 690.319 364.2 688.495 365.64 687.023C367.08 685.551 368.76 684.431 370.68 683.663C372.632 682.895 374.712 682.511 376.92 682.511C378.424 682.511 379.752 682.607 380.904 682.799C382.088 682.991 383.096 683.215 383.928 683.471C384.76 683.727 385.432 683.983 385.944 684.239C386.488 684.495 386.856 684.687 387.048 684.815L385.56 688.703C384.632 688.095 383.4 687.599 381.864 687.215C380.328 686.799 378.76 686.591 377.16 686.591C375.464 686.591 373.912 686.895 372.504 687.503C371.128 688.111 369.944 688.991 368.952 690.143C367.992 691.295 367.24 692.703 366.696 694.367C366.152 695.999 365.88 697.839 365.88 699.887C365.88 701.871 366.104 703.679 366.552 705.311C367.032 706.943 367.736 708.351 368.664 709.535C369.624 710.687 370.792 711.583 372.168 712.223C373.576 712.863 375.224 713.183 377.112 713.183C378.456 713.183 379.592 713.119 380.52 712.991C381.48 712.831 382.168 712.687 382.584 712.559V700.175ZM412.674 717.263C410.498 717.263 408.61 716.927 407.01 716.255C405.41 715.583 404.098 714.671 403.074 713.519C402.05 712.335 401.282 710.943 400.77 709.343C400.29 707.743 400.05 706.015 400.05 704.159V683.279H404.706V703.631C404.706 706.959 405.442 709.375 406.914 710.879C408.386 712.383 410.306 713.135 412.674 713.135C413.858 713.135 414.93 712.959 415.89 712.607C416.882 712.223 417.73 711.647 418.434 710.879C419.138 710.111 419.682 709.135 420.066 707.951C420.45 706.735 420.642 705.295 420.642 703.631V683.279H425.298V704.159C425.298 706.015 425.042 707.743 424.53 709.343C424.05 710.943 423.282 712.335 422.226 713.519C421.202 714.671 419.89 715.583 418.29 716.255C416.722 716.927 414.85 717.263 412.674 717.263ZM439.097 716.543V683.279H459.401V687.263H443.753V697.151H457.673V701.039H443.753V712.559H460.601V716.543H439.097ZM480.007 713.231C484.871 713.231 487.303 711.567 487.303 708.239C487.303 707.215 487.079 706.351 486.631 705.647C486.215 704.911 485.639 704.287 484.903 703.775C484.167 703.231 483.319 702.767 482.359 702.383C481.431 701.999 480.439 701.615 479.383 701.231C478.167 700.815 477.015 700.351 475.927 699.839C474.839 699.295 473.895 698.671 473.095 697.967C472.295 697.231 471.655 696.367 471.175 695.375C470.727 694.383 470.503 693.183 470.503 691.775C470.503 688.863 471.495 686.591 473.479 684.959C475.463 683.327 478.199 682.511 481.687 682.511C483.703 682.511 485.527 682.735 487.159 683.183C488.823 683.599 490.039 684.063 490.807 684.575L489.319 688.367C488.647 687.951 487.639 687.551 486.295 687.167C484.983 686.751 483.447 686.543 481.687 686.543C480.791 686.543 479.959 686.639 479.191 686.831C478.423 687.023 477.751 687.311 477.175 687.695C476.599 688.079 476.135 688.575 475.783 689.183C475.463 689.759 475.303 690.447 475.303 691.247C475.303 692.143 475.479 692.895 475.831 693.503C476.183 694.111 476.679 694.655 477.319 695.135C477.959 695.583 478.695 695.999 479.527 696.383C480.391 696.767 481.335 697.151 482.359 697.535C483.799 698.111 485.111 698.687 486.295 699.263C487.511 699.839 488.551 700.527 489.415 701.327C490.311 702.127 490.999 703.087 491.479 704.207C491.959 705.295 492.199 706.623 492.199 708.191C492.199 711.103 491.127 713.343 488.983 714.911C486.871 716.479 483.879 717.263 480.007 717.263C478.695 717.263 477.479 717.167 476.359 716.975C475.271 716.815 474.295 716.623 473.431 716.399C472.567 716.143 471.815 715.887 471.175 715.631C470.567 715.343 470.087 715.103 469.735 714.911L471.127 711.071C471.863 711.487 472.983 711.951 474.487 712.463C475.991 712.975 477.831 713.231 480.007 713.231ZM525.81 683.279V687.311H515.346V716.543H510.69V687.311H500.226V683.279H525.81ZM569.628 702.623C570.14 703.263 570.78 704.111 571.548 705.167C572.348 706.191 573.164 707.343 573.996 708.623C574.828 709.871 575.644 711.183 576.444 712.559C577.276 713.935 577.98 715.263 578.556 716.543H573.468C572.828 715.327 572.124 714.095 571.356 712.847C570.62 711.599 569.868 710.415 569.1 709.295C568.332 708.143 567.564 707.071 566.796 706.079C566.06 705.087 565.388 704.223 564.78 703.487C564.364 703.519 563.932 703.535 563.484 703.535C563.068 703.535 562.636 703.535 562.188 703.535H558.012V716.543H553.356V683.759C554.668 683.439 556.124 683.231 557.724 683.135C559.356 683.007 560.844 682.943 562.188 682.943C566.86 682.943 570.412 683.823 572.844 685.583C575.308 687.343 576.54 689.967 576.54 693.455C576.54 695.663 575.948 697.551 574.764 699.119C573.612 700.687 571.9 701.855 569.628 702.623ZM562.572 687.023C560.588 687.023 559.068 687.071 558.012 687.167V699.695H561.324C562.924 699.695 564.364 699.615 565.644 699.455C566.924 699.295 567.996 698.991 568.86 698.543C569.756 698.095 570.444 697.471 570.924 696.671C571.404 695.839 571.644 694.751 571.644 693.407C571.644 692.159 571.404 691.119 570.924 690.287C570.444 689.455 569.788 688.799 568.956 688.319C568.156 687.839 567.196 687.503 566.076 687.311C564.988 687.119 563.82 687.023 562.572 687.023ZM587.444 699.887C587.444 697.039 587.86 694.527 588.692 692.351C589.556 690.175 590.708 688.367 592.148 686.927C593.62 685.455 595.316 684.351 597.236 683.615C599.188 682.879 601.252 682.511 603.428 682.511C605.572 682.511 607.588 682.879 609.476 683.615C611.396 684.351 613.076 685.455 614.516 686.927C615.956 688.367 617.092 690.175 617.924 692.351C618.788 694.527 619.22 697.039 619.22 699.887C619.22 702.735 618.788 705.247 617.924 707.423C617.092 709.599 615.956 711.423 614.516 712.895C613.076 714.335 611.396 715.423 609.476 716.159C607.588 716.895 605.572 717.263 603.428 717.263C601.252 717.263 599.188 716.895 597.236 716.159C595.316 715.423 593.62 714.335 592.148 712.895C590.708 711.423 589.556 709.599 588.692 707.423C587.86 705.247 587.444 702.735 587.444 699.887ZM592.34 699.887C592.34 701.903 592.596 703.743 593.108 705.407C593.62 707.039 594.34 708.431 595.268 709.583C596.228 710.735 597.38 711.631 598.724 712.271C600.1 712.879 601.636 713.183 603.332 713.183C605.028 713.183 606.548 712.879 607.892 712.271C609.236 711.631 610.372 710.735 611.3 709.583C612.26 708.431 612.996 707.039 613.508 705.407C614.02 703.743 614.276 701.903 614.276 699.887C614.276 697.871 614.02 696.047 613.508 694.415C612.996 692.751 612.26 691.343 611.3 690.191C610.372 689.039 609.236 688.159 607.892 687.551C606.548 686.911 605.028 686.591 603.332 686.591C601.636 686.591 600.1 686.911 598.724 687.551C597.38 688.159 596.228 689.039 595.268 690.191C594.34 691.343 593.62 692.751 593.108 694.415C592.596 696.047 592.34 697.871 592.34 699.887ZM630.563 699.887C630.563 697.039 630.979 694.527 631.811 692.351C632.675 690.175 633.827 688.367 635.267 686.927C636.739 685.455 638.435 684.351 640.355 683.615C642.307 682.879 644.371 682.511 646.547 682.511C648.691 682.511 650.707 682.879 652.595 683.615C654.515 684.351 656.195 685.455 657.635 686.927C659.075 688.367 660.211 690.175 661.043 692.351C661.907 694.527 662.339 697.039 662.339 699.887C662.339 702.735 661.907 705.247 661.043 707.423C660.211 709.599 659.075 711.423 657.635 712.895C656.195 714.335 654.515 715.423 652.595 716.159C650.707 716.895 648.691 717.263 646.547 717.263C644.371 717.263 642.307 716.895 640.355 716.159C638.435 715.423 636.739 714.335 635.267 712.895C633.827 711.423 632.675 709.599 631.811 707.423C630.979 705.247 630.563 702.735 630.563 699.887ZM635.459 699.887C635.459 701.903 635.715 703.743 636.227 705.407C636.739 707.039 637.459 708.431 638.387 709.583C639.347 710.735 640.499 711.631 641.843 712.271C643.219 712.879 644.755 713.183 646.451 713.183C648.147 713.183 649.667 712.879 651.011 712.271C652.355 711.631 653.491 710.735 654.419 709.583C655.379 708.431 656.115 707.039 656.627 705.407C657.139 703.743 657.395 701.903 657.395 699.887C657.395 697.871 657.139 696.047 656.627 694.415C656.115 692.751 655.379 691.343 654.419 690.191C653.491 689.039 652.355 688.159 651.011 687.551C649.667 686.911 648.147 686.591 646.451 686.591C644.755 686.591 643.219 686.911 641.843 687.551C640.499 688.159 639.347 689.039 638.387 690.191C637.459 691.343 636.739 692.751 636.227 694.415C635.715 696.047 635.459 697.871 635.459 699.887ZM689.955 711.935C689.635 711.167 689.203 710.191 688.659 709.007C688.147 707.823 687.587 706.543 686.979 705.167C686.371 703.791 685.715 702.383 685.011 700.943C684.339 699.471 683.699 698.095 683.091 696.815C682.483 695.503 681.907 694.335 681.363 693.311C680.851 692.287 680.435 691.503 680.115 690.959C679.763 694.735 679.475 698.831 679.251 703.247C679.027 707.631 678.835 712.063 678.675 716.543H674.115C674.243 713.663 674.387 710.767 674.547 707.855C674.707 704.911 674.883 702.031 675.075 699.215C675.299 696.367 675.523 693.599 675.747 690.911C676.003 688.223 676.275 685.679 676.563 683.279H680.643C681.507 684.687 682.435 686.351 683.427 688.271C684.419 690.191 685.411 692.207 686.403 694.319C687.395 696.399 688.355 698.495 689.283 700.607C690.211 702.687 691.059 704.591 691.827 706.319C692.595 704.591 693.443 702.687 694.371 700.607C695.299 698.495 696.259 696.399 697.251 694.319C698.243 692.207 699.235 690.191 700.227 688.271C701.219 686.351 702.147 684.687 703.011 683.279H707.091C708.179 693.999 708.995 705.087 709.539 716.543H704.979C704.819 712.063 704.627 707.631 704.403 703.247C704.179 698.831 703.891 694.735 703.539 690.959C703.219 691.503 702.787 692.287 702.243 693.311C701.731 694.335 701.171 695.503 700.563 696.815C699.955 698.095 699.299 699.471 698.595 700.943C697.923 702.383 697.283 703.791 696.675 705.167C696.067 706.543 695.491 707.823 694.947 709.007C694.435 710.191 694.019 711.167 693.699 711.935H689.955ZM730.327 713.231C735.191 713.231 737.623 711.567 737.623 708.239C737.623 707.215 737.399 706.351 736.951 705.647C736.535 704.911 735.959 704.287 735.223 703.775C734.487 703.231 733.639 702.767 732.679 702.383C731.751 701.999 730.759 701.615 729.703 701.231C728.487 700.815 727.335 700.351 726.247 699.839C725.159 699.295 724.215 698.671 723.415 697.967C722.615 697.231 721.975 696.367 721.495 695.375C721.047 694.383 720.823 693.183 720.823 691.775C720.823 688.863 721.815 686.591 723.799 684.959C725.783 683.327 728.519 682.511 732.007 682.511C734.023 682.511 735.847 682.735 737.479 683.183C739.143 683.599 740.359 684.063 741.127 684.575L739.639 688.367C738.967 687.951 737.959 687.551 736.615 687.167C735.303 686.751 733.767 686.543 732.007 686.543C731.111 686.543 730.279 686.639 729.511 686.831C728.743 687.023 728.071 687.311 727.495 687.695C726.919 688.079 726.455 688.575 726.103 689.183C725.783 689.759 725.623 690.447 725.623 691.247C725.623 692.143 725.799 692.895 726.151 693.503C726.503 694.111 726.999 694.655 727.639 695.135C728.279 695.583 729.015 695.999 729.847 696.383C730.711 696.767 731.655 697.151 732.679 697.535C734.119 698.111 735.431 698.687 736.615 699.263C737.831 699.839 738.871 700.527 739.735 701.327C740.631 702.127 741.319 703.087 741.799 704.207C742.279 705.295 742.519 706.623 742.519 708.191C742.519 711.103 741.447 713.343 739.303 714.911C737.191 716.479 734.199 717.263 730.327 717.263C729.015 717.263 727.799 717.167 726.679 716.975C725.591 716.815 724.615 716.623 723.751 716.399C722.887 716.143 722.135 715.887 721.495 715.631C720.887 715.343 720.407 715.103 720.055 714.911L721.447 711.071C722.183 711.487 723.303 711.951 724.807 712.463C726.311 712.975 728.151 713.231 730.327 713.231Z" fill="black"/>
<path d="M369.452 745.843C368.532 745.843 367.746 745.703 367.092 745.423C366.452 745.143 365.932 744.756 365.532 744.263C365.132 743.77 364.839 743.196 364.652 742.543C364.479 741.876 364.392 741.163 364.392 740.403V731.683H365.752V740.223C365.752 740.983 365.839 741.643 366.012 742.203C366.199 742.75 366.452 743.203 366.772 743.563C367.092 743.923 367.479 744.19 367.932 744.363C368.386 744.536 368.892 744.623 369.452 744.623C370.012 744.623 370.519 744.536 370.972 744.363C371.426 744.19 371.812 743.923 372.132 743.563C372.452 743.203 372.699 742.75 372.872 742.203C373.059 741.643 373.152 740.983 373.152 740.223V731.683H374.512V740.403C374.512 741.163 374.419 741.876 374.232 742.543C374.059 743.196 373.772 743.77 373.372 744.263C372.972 744.756 372.446 745.143 371.792 745.423C371.152 745.703 370.372 745.843 369.452 745.843ZM385.126 739.923C385.539 740.203 385.979 740.563 386.446 741.003C386.926 741.443 387.393 741.923 387.846 742.443C388.313 742.95 388.746 743.476 389.146 744.023C389.559 744.556 389.906 745.063 390.186 745.543H388.646C388.326 745.01 387.959 744.49 387.546 743.983C387.146 743.463 386.719 742.976 386.266 742.523C385.826 742.07 385.379 741.656 384.926 741.283C384.486 740.91 384.066 740.596 383.666 740.343V745.543H382.366V730.263L383.666 730.023V739.863C383.999 739.543 384.373 739.176 384.786 738.763C385.199 738.35 385.613 737.93 386.026 737.503C386.453 737.076 386.853 736.663 387.226 736.263C387.599 735.863 387.919 735.51 388.186 735.203H389.746C389.439 735.523 389.093 735.883 388.706 736.283C388.319 736.683 387.913 737.103 387.486 737.543C387.073 737.97 386.659 738.39 386.246 738.803C385.833 739.216 385.459 739.59 385.126 739.923ZM400.188 735.003C400.615 735.003 401.015 735.036 401.388 735.103C401.775 735.17 402.042 735.236 402.188 735.303L401.928 736.423C401.822 736.37 401.602 736.316 401.268 736.263C400.948 736.196 400.522 736.163 399.988 736.163C399.428 736.163 398.975 736.203 398.628 736.283C398.295 736.363 398.075 736.43 397.968 736.483V745.543H396.668V735.683C397.002 735.536 397.462 735.39 398.048 735.243C398.635 735.083 399.348 735.003 400.188 735.003ZM411.809 744.603C412.316 744.603 412.756 744.59 413.129 744.563C413.516 744.523 413.842 744.476 414.109 744.423V740.783C413.962 740.716 413.729 740.65 413.409 740.583C413.089 740.503 412.649 740.463 412.089 740.463C411.769 740.463 411.436 740.49 411.089 740.543C410.742 740.583 410.422 740.683 410.129 740.843C409.836 740.99 409.596 741.196 409.409 741.463C409.222 741.73 409.129 742.083 409.129 742.523C409.129 742.91 409.189 743.236 409.309 743.503C409.442 743.77 409.622 743.983 409.849 744.143C410.089 744.303 410.369 744.423 410.689 744.503C411.022 744.57 411.396 744.603 411.809 744.603ZM411.689 734.963C412.369 734.963 412.942 735.063 413.409 735.263C413.889 735.45 414.276 735.716 414.569 736.063C414.862 736.396 415.076 736.796 415.209 737.263C415.342 737.73 415.409 738.236 415.409 738.783V745.303C415.276 745.343 415.082 745.39 414.829 745.443C414.576 745.483 414.282 745.53 413.949 745.583C413.616 745.636 413.242 745.676 412.829 745.703C412.429 745.743 412.016 745.763 411.589 745.763C411.042 745.763 410.536 745.703 410.069 745.583C409.616 745.463 409.216 745.276 408.869 745.023C408.536 744.756 408.269 744.423 408.069 744.023C407.882 743.61 407.789 743.11 407.789 742.523C407.789 741.963 407.896 741.483 408.109 741.083C408.322 740.683 408.622 740.356 409.009 740.103C409.396 739.836 409.856 739.643 410.389 739.523C410.922 739.403 411.502 739.343 412.129 739.343C412.316 739.343 412.509 739.356 412.709 739.383C412.922 739.396 413.122 739.423 413.309 739.463C413.509 739.49 413.676 739.523 413.809 739.563C413.956 739.59 414.056 739.616 414.109 739.643V739.003C414.109 738.643 414.082 738.296 414.029 737.963C413.976 737.616 413.856 737.31 413.669 737.043C413.496 736.763 413.242 736.543 412.909 736.383C412.589 736.21 412.162 736.123 411.629 736.123C410.869 736.123 410.302 736.176 409.929 736.283C409.556 736.39 409.282 736.476 409.109 736.543L408.929 735.403C409.156 735.296 409.502 735.196 409.969 735.103C410.449 735.01 411.022 734.963 411.689 734.963ZM424.425 745.543H423.125V735.203H424.425V745.543ZM424.725 732.083C424.725 732.39 424.631 732.636 424.445 732.823C424.258 732.996 424.031 733.083 423.765 733.083C423.498 733.083 423.271 732.996 423.085 732.823C422.898 732.636 422.805 732.39 422.805 732.083C422.805 731.776 422.898 731.536 423.085 731.363C423.271 731.176 423.498 731.083 423.765 731.083C424.031 731.083 424.258 731.176 424.445 731.363C424.631 731.536 424.725 731.776 424.725 732.083ZM432.271 735.563C432.657 735.456 433.177 735.336 433.831 735.203C434.484 735.07 435.284 735.003 436.231 735.003C437.017 735.003 437.671 735.116 438.191 735.343C438.724 735.57 439.144 735.896 439.451 736.323C439.771 736.736 439.997 737.236 440.131 737.823C440.264 738.41 440.331 739.056 440.331 739.763V745.543H439.031V740.183C439.031 739.45 438.977 738.83 438.871 738.323C438.777 737.816 438.611 737.403 438.371 737.083C438.144 736.763 437.837 736.536 437.451 736.403C437.077 736.256 436.604 736.183 436.031 736.183C435.417 736.183 434.884 736.216 434.431 736.283C433.991 736.35 433.704 736.41 433.571 736.463V745.543H432.271V735.563ZM449.358 745.543H448.058V735.203H449.358V745.543ZM449.658 732.083C449.658 732.39 449.564 732.636 449.378 732.823C449.191 732.996 448.964 733.083 448.698 733.083C448.431 733.083 448.204 732.996 448.018 732.823C447.831 732.636 447.738 732.39 447.738 732.083C447.738 731.776 447.831 731.536 448.018 731.363C448.204 731.176 448.431 731.083 448.698 731.083C448.964 731.083 449.191 731.176 449.378 731.363C449.564 731.536 449.658 731.776 449.658 732.083ZM460.464 744.603C460.97 744.603 461.41 744.59 461.784 744.563C462.17 744.523 462.497 744.476 462.764 744.423V740.783C462.617 740.716 462.384 740.65 462.064 740.583C461.744 740.503 461.304 740.463 460.744 740.463C460.424 740.463 460.09 740.49 459.744 740.543C459.397 740.583 459.077 740.683 458.784 740.843C458.49 740.99 458.25 741.196 458.064 741.463C457.877 741.73 457.784 742.083 457.784 742.523C457.784 742.91 457.844 743.236 457.964 743.503C458.097 743.77 458.277 743.983 458.504 744.143C458.744 744.303 459.024 744.423 459.344 744.503C459.677 744.57 460.05 744.603 460.464 744.603ZM460.344 734.963C461.024 734.963 461.597 735.063 462.064 735.263C462.544 735.45 462.93 735.716 463.224 736.063C463.517 736.396 463.73 736.796 463.864 737.263C463.997 737.73 464.064 738.236 464.064 738.783V745.303C463.93 745.343 463.737 745.39 463.484 745.443C463.23 745.483 462.937 745.53 462.604 745.583C462.27 745.636 461.897 745.676 461.484 745.703C461.084 745.743 460.67 745.763 460.244 745.763C459.697 745.763 459.19 745.703 458.724 745.583C458.27 745.463 457.87 745.276 457.524 745.023C457.19 744.756 456.924 744.423 456.724 744.023C456.537 743.61 456.444 743.11 456.444 742.523C456.444 741.963 456.55 741.483 456.764 741.083C456.977 740.683 457.277 740.356 457.664 740.103C458.05 739.836 458.51 739.643 459.044 739.523C459.577 739.403 460.157 739.343 460.784 739.343C460.97 739.343 461.164 739.356 461.364 739.383C461.577 739.396 461.777 739.423 461.964 739.463C462.164 739.49 462.33 739.523 462.464 739.563C462.61 739.59 462.71 739.616 462.764 739.643V739.003C462.764 738.643 462.737 738.296 462.684 737.963C462.63 737.616 462.51 737.31 462.324 737.043C462.15 736.763 461.897 736.543 461.564 736.383C461.244 736.21 460.817 736.123 460.284 736.123C459.524 736.123 458.957 736.176 458.584 736.283C458.21 736.39 457.937 736.476 457.764 736.543L457.584 735.403C457.81 735.296 458.157 735.196 458.624 735.103C459.104 735.01 459.677 734.963 460.344 734.963ZM471.779 735.563C472.166 735.456 472.686 735.336 473.339 735.203C473.993 735.07 474.793 735.003 475.739 735.003C476.526 735.003 477.179 735.116 477.699 735.343C478.233 735.57 478.653 735.896 478.959 736.323C479.279 736.736 479.506 737.236 479.639 737.823C479.773 738.41 479.839 739.056 479.839 739.763V745.543H478.539V740.183C478.539 739.45 478.486 738.83 478.379 738.323C478.286 737.816 478.119 737.403 477.879 737.083C477.653 736.763 477.346 736.536 476.959 736.403C476.586 736.256 476.113 736.183 475.539 736.183C474.926 736.183 474.393 736.216 473.939 736.283C473.499 736.35 473.213 736.41 473.079 736.463V745.543H471.779V735.563ZM502.357 745.843C501.464 745.843 500.63 745.683 499.857 745.363C499.097 745.043 498.43 744.576 497.857 743.963C497.297 743.35 496.85 742.596 496.517 741.703C496.197 740.796 496.037 739.763 496.037 738.603C496.037 737.443 496.21 736.416 496.557 735.523C496.917 734.616 497.39 733.856 497.977 733.243C498.564 732.63 499.244 732.17 500.017 731.863C500.79 731.543 501.597 731.383 502.437 731.383C502.957 731.383 503.43 731.416 503.857 731.483C504.284 731.55 504.657 731.636 504.977 731.743C505.297 731.836 505.57 731.936 505.797 732.043C506.024 732.136 506.197 732.223 506.317 732.303L505.877 733.483C505.544 733.283 505.117 733.09 504.597 732.903C504.09 732.703 503.457 732.603 502.697 732.603C501.83 732.603 501.07 732.75 500.417 733.043C499.777 733.336 499.237 733.75 498.797 734.283C498.357 734.816 498.024 735.45 497.797 736.183C497.584 736.916 497.477 737.73 497.477 738.623C497.477 739.543 497.584 740.376 497.797 741.123C498.024 741.856 498.35 742.483 498.777 743.003C499.204 743.523 499.724 743.923 500.337 744.203C500.964 744.483 501.677 744.623 502.477 744.623C503.357 744.623 504.09 744.543 504.677 744.383C505.277 744.21 505.73 744.036 506.037 743.863L506.417 745.023C506.324 745.09 506.164 745.17 505.937 745.263C505.71 745.343 505.424 745.43 505.077 745.523C504.73 745.616 504.33 745.69 503.877 745.743C503.424 745.81 502.917 745.843 502.357 745.843ZM516.364 744.603C516.871 744.603 517.311 744.59 517.684 744.563C518.071 744.523 518.398 744.476 518.664 744.423V740.783C518.518 740.716 518.284 740.65 517.964 740.583C517.644 740.503 517.204 740.463 516.644 740.463C516.324 740.463 515.991 740.49 515.644 740.543C515.298 740.583 514.978 740.683 514.684 740.843C514.391 740.99 514.151 741.196 513.964 741.463C513.778 741.73 513.684 742.083 513.684 742.523C513.684 742.91 513.744 743.236 513.864 743.503C513.998 743.77 514.178 743.983 514.404 744.143C514.644 744.303 514.924 744.423 515.244 744.503C515.578 744.57 515.951 744.603 516.364 744.603ZM516.244 734.963C516.924 734.963 517.498 735.063 517.964 735.263C518.444 735.45 518.831 735.716 519.124 736.063C519.418 736.396 519.631 736.796 519.764 737.263C519.898 737.73 519.964 738.236 519.964 738.783V745.303C519.831 745.343 519.638 745.39 519.384 745.443C519.131 745.483 518.838 745.53 518.504 745.583C518.171 745.636 517.798 745.676 517.384 745.703C516.984 745.743 516.571 745.763 516.144 745.763C515.598 745.763 515.091 745.703 514.624 745.583C514.171 745.463 513.771 745.276 513.424 745.023C513.091 744.756 512.824 744.423 512.624 744.023C512.438 743.61 512.344 743.11 512.344 742.523C512.344 741.963 512.451 741.483 512.664 741.083C512.878 740.683 513.178 740.356 513.564 740.103C513.951 739.836 514.411 739.643 514.944 739.523C515.478 739.403 516.058 739.343 516.684 739.343C516.871 739.343 517.064 739.356 517.264 739.383C517.478 739.396 517.678 739.423 517.864 739.463C518.064 739.49 518.231 739.523 518.364 739.563C518.511 739.59 518.611 739.616 518.664 739.643V739.003C518.664 738.643 518.638 738.296 518.584 737.963C518.531 737.616 518.411 737.31 518.224 737.043C518.051 736.763 517.798 736.543 517.464 736.383C517.144 736.21 516.718 736.123 516.184 736.123C515.424 736.123 514.858 736.176 514.484 736.283C514.111 736.39 513.838 736.476 513.664 736.543L513.484 735.403C513.711 735.296 514.058 735.196 514.524 735.103C515.004 735.01 515.578 734.963 516.244 734.963ZM528.9 735.203H533.02V736.303H528.9V741.803C528.9 742.39 528.947 742.87 529.04 743.243C529.147 743.603 529.293 743.883 529.48 744.083C529.667 744.283 529.893 744.416 530.16 744.483C530.427 744.55 530.72 744.583 531.04 744.583C531.587 744.583 532.027 744.523 532.36 744.403C532.693 744.27 532.953 744.15 533.14 744.043L533.46 745.123C533.273 745.243 532.947 745.383 532.48 745.543C532.013 745.69 531.507 745.763 530.96 745.763C530.32 745.763 529.78 745.683 529.34 745.523C528.913 745.35 528.567 745.096 528.3 744.763C528.047 744.416 527.867 743.99 527.76 743.483C527.653 742.976 527.6 742.376 527.6 741.683V732.163L528.9 731.923V735.203ZM539.815 745.543V730.263L541.115 730.023V735.503C541.541 735.343 541.975 735.223 542.415 735.143C542.855 735.05 543.295 735.003 543.735 735.003C544.535 735.003 545.201 735.116 545.735 735.343C546.268 735.57 546.695 735.896 547.015 736.323C547.335 736.736 547.555 737.236 547.675 737.823C547.808 738.41 547.875 739.056 547.875 739.763V745.543H546.575V740.183C546.575 739.45 546.521 738.83 546.415 738.323C546.321 737.816 546.155 737.403 545.915 737.083C545.688 736.763 545.381 736.536 544.995 736.403C544.608 736.256 544.121 736.183 543.535 736.183C543.308 736.183 543.061 736.203 542.795 736.243C542.541 736.283 542.301 736.33 542.075 736.383C541.848 736.423 541.641 736.47 541.455 736.523C541.281 736.576 541.168 736.616 541.115 736.643V745.543H539.815ZM564.421 740.383C564.421 741.196 564.301 741.936 564.061 742.603C563.835 743.27 563.508 743.836 563.081 744.303C562.668 744.77 562.175 745.136 561.601 745.403C561.028 745.656 560.395 745.783 559.701 745.783C559.008 745.783 558.375 745.656 557.801 745.403C557.228 745.136 556.728 744.77 556.301 744.303C555.888 743.836 555.561 743.27 555.321 742.603C555.095 741.936 554.981 741.196 554.981 740.383C554.981 739.57 555.095 738.83 555.321 738.163C555.561 737.496 555.888 736.93 556.301 736.463C556.728 735.983 557.228 735.616 557.801 735.363C558.375 735.096 559.008 734.963 559.701 734.963C560.395 734.963 561.028 735.096 561.601 735.363C562.175 735.616 562.668 735.983 563.081 736.463C563.508 736.93 563.835 737.496 564.061 738.163C564.301 738.83 564.421 739.57 564.421 740.383ZM563.041 740.383C563.041 739.09 562.741 738.063 562.141 737.303C561.541 736.53 560.728 736.143 559.701 736.143C558.675 736.143 557.861 736.53 557.261 737.303C556.661 738.063 556.361 739.09 556.361 740.383C556.361 741.676 556.661 742.703 557.261 743.463C557.861 744.223 558.675 744.603 559.701 744.603C560.728 744.603 561.541 744.223 562.141 743.463C562.741 742.703 563.041 741.676 563.041 740.383ZM574.262 745.723C573.822 745.71 573.435 745.65 573.102 745.543C572.782 745.45 572.509 745.303 572.282 745.103C572.069 744.89 571.902 744.623 571.782 744.303C571.675 743.97 571.622 743.556 571.622 743.063V730.263L572.922 730.023V743.023C572.922 743.343 572.949 743.603 573.002 743.803C573.069 743.99 573.162 744.143 573.282 744.263C573.402 744.37 573.555 744.45 573.742 744.503C573.942 744.556 574.175 744.603 574.442 744.643L574.262 745.723ZM582.44 745.543H581.14V735.203H582.44V745.543ZM582.74 732.083C582.74 732.39 582.646 732.636 582.46 732.823C582.273 732.996 582.046 733.083 581.78 733.083C581.513 733.083 581.286 732.996 581.1 732.823C580.913 732.636 580.82 732.39 580.82 732.083C580.82 731.776 580.913 731.536 581.1 731.363C581.286 731.176 581.513 731.083 581.78 731.083C582.046 731.083 582.273 731.176 582.46 731.363C582.646 731.536 582.74 731.776 582.74 732.083ZM594.566 745.763C593.766 745.763 593.059 745.636 592.446 745.383C591.832 745.13 591.319 744.77 590.906 744.303C590.506 743.823 590.199 743.256 589.986 742.603C589.772 741.936 589.666 741.203 589.666 740.403C589.666 739.59 589.772 738.85 589.986 738.183C590.212 737.516 590.532 736.943 590.946 736.463C591.359 735.983 591.859 735.616 592.446 735.363C593.032 735.096 593.692 734.963 594.426 734.963C594.986 734.963 595.506 735.01 595.986 735.103C596.479 735.196 596.859 735.316 597.126 735.463L596.786 736.583C596.519 736.45 596.219 736.343 595.886 736.263C595.552 736.183 595.106 736.143 594.546 736.143C593.399 736.143 592.526 736.516 591.926 737.263C591.339 737.996 591.046 739.043 591.046 740.403C591.046 741.016 591.112 741.583 591.246 742.103C591.379 742.61 591.592 743.05 591.886 743.423C592.192 743.783 592.579 744.07 593.046 744.283C593.526 744.483 594.106 744.583 594.786 744.583C595.346 744.583 595.812 744.523 596.186 744.403C596.572 744.27 596.852 744.156 597.026 744.063L597.306 745.183C597.066 745.316 596.686 745.443 596.166 745.563C595.659 745.696 595.126 745.763 594.566 745.763ZM617.916 745.843C616.996 745.843 616.209 745.703 615.556 745.423C614.916 745.143 614.396 744.756 613.996 744.263C613.596 743.77 613.302 743.196 613.116 742.543C612.942 741.876 612.856 741.163 612.856 740.403V731.683H614.216V740.223C614.216 740.983 614.302 741.643 614.476 742.203C614.662 742.75 614.916 743.203 615.236 743.563C615.556 743.923 615.942 744.19 616.396 744.363C616.849 744.536 617.356 744.623 617.916 744.623C618.476 744.623 618.982 744.536 619.436 744.363C619.889 744.19 620.276 743.923 620.596 743.563C620.916 743.203 621.162 742.75 621.336 742.203C621.522 741.643 621.616 740.983 621.616 740.223V731.683H622.976V740.403C622.976 741.163 622.882 741.876 622.696 742.543C622.522 743.196 622.236 743.77 621.836 744.263C621.436 744.756 620.909 745.143 620.256 745.423C619.616 745.703 618.836 745.843 617.916 745.843ZM630.829 735.563C631.216 735.456 631.736 735.336 632.389 735.203C633.043 735.07 633.843 735.003 634.789 735.003C635.576 735.003 636.229 735.116 636.749 735.343C637.283 735.57 637.703 735.896 638.009 736.323C638.329 736.736 638.556 737.236 638.689 737.823C638.823 738.41 638.889 739.056 638.889 739.763V745.543H637.589V740.183C637.589 739.45 637.536 738.83 637.429 738.323C637.336 737.816 637.169 737.403 636.929 737.083C636.703 736.763 636.396 736.536 636.009 736.403C635.636 736.256 635.163 736.183 634.589 736.183C633.976 736.183 633.443 736.216 632.989 736.283C632.549 736.35 632.263 736.41 632.129 736.463V745.543H630.829V735.563ZM647.916 745.543H646.616V735.203H647.916V745.543ZM648.216 732.083C648.216 732.39 648.123 732.636 647.936 732.823C647.749 732.996 647.523 733.083 647.256 733.083C646.989 733.083 646.763 732.996 646.576 732.823C646.389 732.636 646.296 732.39 646.296 732.083C646.296 731.776 646.389 731.536 646.576 731.363C646.763 731.176 646.989 731.083 647.256 731.083C647.523 731.083 647.749 731.176 647.936 731.363C648.123 731.536 648.216 731.776 648.216 732.083ZM658.882 744.143C659.162 743.57 659.449 742.916 659.742 742.183C660.036 741.436 660.316 740.67 660.582 739.883C660.862 739.083 661.116 738.283 661.342 737.483C661.582 736.67 661.782 735.91 661.942 735.203H663.242C663.002 736.15 662.736 737.083 662.442 738.003C662.149 738.923 661.836 739.823 661.502 740.703C661.182 741.583 660.842 742.43 660.482 743.243C660.136 744.056 659.796 744.823 659.462 745.543H658.222C657.876 744.823 657.529 744.056 657.182 743.243C656.836 742.43 656.496 741.583 656.162 740.703C655.842 739.823 655.536 738.923 655.242 738.003C654.949 737.083 654.682 736.15 654.442 735.203H655.822C655.982 735.91 656.176 736.67 656.402 737.483C656.642 738.283 656.896 739.083 657.162 739.883C657.442 740.67 657.729 741.436 658.022 742.183C658.316 742.916 658.602 743.57 658.882 744.143ZM669.152 740.363C669.152 739.456 669.278 738.67 669.532 738.003C669.798 737.323 670.138 736.756 670.552 736.303C670.978 735.85 671.458 735.516 671.992 735.303C672.538 735.076 673.098 734.963 673.672 734.963C674.938 734.963 675.945 735.376 676.692 736.203C677.452 737.03 677.832 738.303 677.832 740.023C677.832 740.13 677.825 740.236 677.812 740.343C677.812 740.45 677.805 740.55 677.792 740.643H670.532C670.572 741.91 670.885 742.883 671.472 743.563C672.058 744.243 672.992 744.583 674.272 744.583C674.978 744.583 675.538 744.516 675.952 744.383C676.365 744.25 676.665 744.136 676.852 744.043L677.092 745.163C676.905 745.27 676.552 745.396 676.032 745.543C675.525 745.69 674.925 745.763 674.232 745.763C673.325 745.763 672.552 745.63 671.912 745.363C671.272 745.096 670.745 744.723 670.332 744.243C669.918 743.763 669.618 743.196 669.432 742.543C669.245 741.876 669.152 741.15 669.152 740.363ZM676.492 739.543C676.465 738.463 676.212 737.623 675.732 737.023C675.252 736.423 674.572 736.123 673.692 736.123C673.225 736.123 672.805 736.216 672.432 736.403C672.072 736.59 671.752 736.843 671.472 737.163C671.205 737.47 670.992 737.83 670.832 738.243C670.685 738.656 670.598 739.09 670.572 739.543H676.492ZM688.649 735.003C689.075 735.003 689.475 735.036 689.849 735.103C690.235 735.17 690.502 735.236 690.649 735.303L690.389 736.423C690.282 736.37 690.062 736.316 689.729 736.263C689.409 736.196 688.982 736.163 688.449 736.163C687.889 736.163 687.435 736.203 687.089 736.283C686.755 736.363 686.535 736.43 686.429 736.483V745.543H685.129V735.683C685.462 735.536 685.922 735.39 686.509 735.243C687.095 735.083 687.809 735.003 688.649 735.003ZM699.129 744.623C699.876 744.623 700.489 744.503 700.969 744.263C701.462 744.01 701.709 743.59 701.709 743.003C701.709 742.723 701.662 742.483 701.569 742.283C701.489 742.083 701.349 741.903 701.149 741.743C700.949 741.583 700.682 741.43 700.349 741.283C700.029 741.136 699.629 740.963 699.149 740.763C698.762 740.603 698.396 740.443 698.049 740.283C697.702 740.11 697.396 739.916 697.129 739.703C696.862 739.476 696.649 739.21 696.489 738.903C696.329 738.596 696.249 738.223 696.249 737.783C696.249 736.943 696.562 736.263 697.189 735.743C697.829 735.223 698.702 734.963 699.809 734.963C700.516 734.963 701.096 735.023 701.549 735.143C702.016 735.263 702.342 735.37 702.529 735.463L702.229 736.623C702.069 736.543 701.796 736.436 701.409 736.303C701.036 736.17 700.482 736.103 699.749 736.103C699.456 736.103 699.176 736.136 698.909 736.203C698.656 736.256 698.429 736.35 698.229 736.483C698.029 736.603 697.869 736.763 697.749 736.963C697.629 737.15 697.569 737.383 697.569 737.663C697.569 737.943 697.622 738.183 697.729 738.383C697.836 738.583 697.989 738.763 698.189 738.923C698.402 739.07 698.656 739.21 698.949 739.343C699.256 739.476 699.602 739.623 699.989 739.783C700.389 739.943 700.769 740.11 701.129 740.283C701.502 740.443 701.829 740.643 702.109 740.883C702.389 741.11 702.616 741.39 702.789 741.723C702.962 742.043 703.049 742.45 703.049 742.943C703.049 743.876 702.696 744.583 701.989 745.063C701.296 745.543 700.342 745.783 699.129 745.783C698.222 745.783 697.529 745.703 697.049 745.543C696.569 745.396 696.249 745.283 696.089 745.203L696.429 744.023C696.469 744.05 696.556 744.096 696.689 744.163C696.822 744.216 697.002 744.283 697.229 744.363C697.456 744.43 697.722 744.49 698.029 744.543C698.349 744.596 698.716 744.623 699.129 744.623ZM711.264 745.543H709.964V735.203H711.264V745.543ZM711.564 732.083C711.564 732.39 711.47 732.636 711.284 732.823C711.097 732.996 710.87 733.083 710.604 733.083C710.337 733.083 710.11 732.996 709.924 732.823C709.737 732.636 709.644 732.39 709.644 732.083C709.644 731.776 709.737 731.536 709.924 731.363C710.11 731.176 710.337 731.083 710.604 731.083C710.87 731.083 711.097 731.176 711.284 731.363C711.47 731.536 711.564 731.776 711.564 732.083ZM720.33 735.203H724.45V736.303H720.33V741.803C720.33 742.39 720.376 742.87 720.47 743.243C720.576 743.603 720.723 743.883 720.91 744.083C721.096 744.283 721.323 744.416 721.59 744.483C721.856 744.55 722.15 744.583 722.47 744.583C723.016 744.583 723.456 744.523 723.79 744.403C724.123 744.27 724.383 744.15 724.57 744.043L724.89 745.123C724.703 745.243 724.376 745.383 723.91 745.543C723.443 745.69 722.936 745.763 722.39 745.763C721.75 745.763 721.21 745.683 720.77 745.523C720.343 745.35 719.996 745.096 719.73 744.763C719.476 744.416 719.296 743.99 719.19 743.483C719.083 742.976 719.03 742.376 719.03 741.683V732.163L720.33 731.923V735.203ZM734.064 745.763C733.624 744.95 733.198 744.103 732.784 743.223C732.384 742.343 732.004 741.456 731.644 740.563C731.298 739.656 730.978 738.756 730.684 737.863C730.391 736.956 730.138 736.07 729.924 735.203H731.304C731.451 735.843 731.638 736.536 731.864 737.283C732.091 738.016 732.344 738.776 732.624 739.563C732.918 740.35 733.238 741.156 733.584 741.983C733.931 742.81 734.304 743.623 734.704 744.423C734.998 743.596 735.258 742.816 735.484 742.083C735.711 741.35 735.918 740.623 736.104 739.903C736.304 739.17 736.491 738.423 736.664 737.663C736.851 736.903 737.044 736.083 737.244 735.203H738.544C738.118 737.136 737.631 739.016 737.084 740.843C736.538 742.67 735.944 744.343 735.304 745.863C735.051 746.463 734.791 746.976 734.524 747.403C734.258 747.843 733.958 748.203 733.624 748.483C733.304 748.763 732.924 748.97 732.484 749.103C732.058 749.236 731.551 749.303 730.964 749.303C730.631 749.303 730.324 749.263 730.044 749.183C729.778 749.103 729.611 749.043 729.544 749.003L729.804 747.923C729.858 747.963 730.004 748.016 730.244 748.083C730.498 748.163 730.758 748.203 731.024 748.203C731.398 748.203 731.731 748.163 732.024 748.083C732.331 748.003 732.604 747.863 732.844 747.663C733.084 747.476 733.298 747.23 733.484 746.923C733.684 746.616 733.878 746.23 734.064 745.763Z" fill="black"/>
</svg>
