<svg width="442" height="107" viewBox="0 0 442 107" fill="none" xmlns="http://www.w3.org/2000/svg">
<path fill-rule="evenodd" clip-rule="evenodd" d="M66.8727 0.598812C68.7059 0.925057 70.4612 1.55087 72.1489 2.48002C73.6378 3.2998 75.3935 4.5887 75.3935 4.86196C75.3935 4.97512 74.6533 5.93039 73.7489 6.98482C72.8442 8.03906 72.0806 8.93623 72.0517 8.97824C72.023 9.02025 71.5098 8.71179 70.9114 8.29263C67.3824 5.82157 63.5402 5.01391 59.8335 5.96388C57.7606 6.49526 56.2532 7.36178 54.6867 8.92204C53.6132 9.99142 53.1578 10.635 52.4763 12.0454C50.8256 15.4617 50.2043 18.8965 50.2208 24.5139C50.2298 27.5678 50.3152 28.8563 50.6224 30.5698C51.7969 37.122 54.5041 40.9387 59.0304 42.4237C61.1847 43.1305 64.425 43.1715 66.5121 42.5185C68.2712 41.968 69.8538 41.1796 71.3868 40.0898C72.0392 39.6262 72.6569 39.2748 72.7594 39.309C73.0294 39.3993 75.9579 43.1136 75.9591 43.3676C75.9611 43.8365 72.4477 46.3108 70.7312 47.0492C65.48 49.3079 58.7102 49.1113 53.9159 46.5606C48.314 43.5803 45.0864 38.5608 43.6339 30.5695C43.0667 27.4495 43.0677 21.3892 43.6356 18.248C44.7055 12.3323 46.776 8.23151 50.409 4.83319C52.088 3.26271 53.3843 2.41644 55.3185 1.62789C58.8796 0.176252 62.6238 -0.157191 66.8727 0.598812ZM7.41618 17.8039C7.41618 32.3216 7.45602 34.7543 7.71415 36.018C8.4383 39.5635 10.2454 41.602 13.5587 42.6106C15.1331 43.0898 18.9553 43.0902 20.5396 42.6112C22.1078 42.137 23.7508 41.2284 24.4186 40.4664C25.1556 39.625 25.9747 37.9649 26.4072 36.4358C26.7312 35.2902 26.7595 34.0344 26.8186 18.1271L26.8821 1.04844H30.1782H33.4742L33.4704 17.5594C33.466 36.6909 33.4383 37.0718 31.7991 40.5044C30.088 44.0878 26.7044 46.8106 22.5223 47.9696C20.5128 48.5266 17.468 48.7588 15.0164 48.5419C7.96415 47.9178 3.1674 44.1399 1.32805 37.7605C0.923583 36.3575 0.918113 36.1385 0.856556 18.6948L0.794434 1.04844H4.1053H7.41618V17.8039ZM92.2485 18.0325C92.311 33.2351 92.352 35.142 92.6375 36.2133C93.5697 39.7104 95.3583 41.654 98.5247 42.6112C100.108 43.0898 103.931 43.0898 105.503 42.6112C108.077 41.8278 109.516 40.6857 110.51 38.6378C111.783 36.015 111.723 36.9749 111.792 18.1271L111.854 1.04844H115.15H118.446V17.6765C118.446 35.9686 118.445 35.9851 117.288 39.1896C115.7 43.5867 112.098 46.7723 107.328 47.9971C105.212 48.5404 102.368 48.7523 100.002 48.543C92.645 47.8921 87.7609 43.8464 86.1154 37.0404C85.7291 35.4425 85.7155 34.8998 85.6415 18.2217L85.5652 1.04844H88.8719H92.1786L92.2485 18.0325ZM35.8825 79.44L35.8345 103.142L32.5772 103.194L29.32 103.245V79.4918V55.738H32.6252H35.9304L35.8825 79.44ZM65.9787 56.0306C68.9661 56.5841 70.5375 57.2532 72.6846 58.8862C74.4785 60.2504 75.6573 61.713 76.6294 63.7806C78.2159 67.1555 78.1147 65.7311 78.1795 85.5947L78.2371 103.245L74.9743 103.194L71.7114 103.142L71.617 85.8267L71.5226 68.5115L71.0035 67.0413C70.1021 64.4883 68.9648 63.1586 66.8244 62.1549C65.3402 61.4588 64.0778 61.2251 61.8196 61.2287C57.5361 61.2354 54.6774 62.7894 53.2841 65.869C52.1934 68.2795 52.1679 68.7581 52.1679 86.8023V103.245L48.9107 103.194L45.6534 103.142L45.5972 86.9622C45.5362 69.4553 45.583 68.344 46.5014 65.5691C47.2211 63.3953 48.1703 61.8316 49.8169 60.1079C51.9147 57.9116 54.0568 56.7743 57.335 56.1163C59.572 55.6671 63.7917 55.6252 65.9787 56.0306ZM106.615 56.1189C108.031 56.4002 109.051 56.7546 110.513 57.4735C112.213 58.3092 112.726 58.6795 114.125 60.0823C115.488 61.4481 115.9 62.012 116.625 63.506C117.103 64.4897 117.684 65.9757 117.918 66.8084C118.342 68.321 118.343 68.338 118.402 85.7794L118.461 103.237H115.156H111.852L111.788 86.1579C111.717 67.3131 111.763 68.0557 110.506 65.561C109.749 64.0575 108.591 62.9209 107.097 62.215C105.497 61.4588 104.285 61.2259 101.954 61.2259C96.873 61.2259 93.9817 63.2806 92.7206 67.7877C92.3104 69.2535 92.3057 69.4403 92.2434 86.2569L92.1803 103.245L88.9325 103.194L85.6845 103.142V86.2052C85.6845 70.5235 85.71 69.1493 86.0291 67.66C87.1226 62.5557 90.1446 58.7126 94.44 56.9635C97.4741 55.728 102.789 55.3592 106.615 56.1189Z" fill="black"/>
<path d="M156.672 67.671C156.409 66.8437 156.054 66.1029 155.609 65.4483C155.172 64.7847 154.65 64.2211 154.041 63.7575C153.431 63.2848 152.736 62.9257 151.954 62.6802C151.182 62.4348 150.332 62.3121 149.404 62.3121C147.832 62.3121 146.414 62.7166 145.15 63.5257C143.886 64.3347 142.886 65.5211 142.15 67.0846C141.423 68.6391 141.059 70.5436 141.059 72.7981C141.059 75.0617 141.427 76.9752 142.164 78.5388C142.9 80.1024 143.909 81.2887 145.191 82.0978C146.473 82.9068 147.932 83.3114 149.568 83.3114C151.086 83.3114 152.409 83.0023 153.536 82.3841C154.672 81.766 155.55 80.8933 156.168 79.766C156.795 78.6297 157.109 77.2934 157.109 75.7571L158.2 75.9616H150.209V72.4845H161.186V75.6616C161.186 78.007 160.686 80.0433 159.686 81.7705C158.695 83.4886 157.322 84.8159 155.568 85.7522C153.822 86.6885 151.822 87.1567 149.568 87.1567C147.041 87.1567 144.823 86.5749 142.914 85.4113C141.014 84.2477 139.532 82.5978 138.468 80.4615C137.405 78.3161 136.873 75.7707 136.873 72.8254C136.873 70.5982 137.182 68.5982 137.8 66.8256C138.418 65.0529 139.287 63.5484 140.405 62.3121C141.532 61.0667 142.855 60.1167 144.373 59.4622C145.9 58.7986 147.568 58.4667 149.377 58.4667C150.886 58.4667 152.291 58.6895 153.591 59.1349C154.9 59.5803 156.063 60.2121 157.081 61.0303C158.109 61.8485 158.959 62.8211 159.631 63.9484C160.304 65.0665 160.759 66.3074 160.995 67.671H156.672ZM186.797 58.8486H191.024V77.2161C191.024 79.1706 190.565 80.9024 189.647 82.4114C188.729 83.9114 187.438 85.0931 185.774 85.9567C184.111 86.8113 182.161 87.2385 179.924 87.2385C177.697 87.2385 175.752 86.8113 174.088 85.9567C172.425 85.0931 171.134 83.9114 170.216 82.4114C169.297 80.9024 168.838 79.1706 168.838 77.2161V58.8486H173.052V76.8752C173.052 78.1388 173.329 79.2615 173.884 80.2433C174.447 81.2251 175.243 81.9978 176.27 82.5614C177.297 83.1159 178.515 83.3932 179.924 83.3932C181.343 83.3932 182.565 83.1159 183.592 82.5614C184.629 81.9978 185.42 81.2251 185.965 80.2433C186.52 79.2615 186.797 78.1388 186.797 76.8752V58.8486ZM199.454 86.7749V58.8486H216.962V62.4757H203.667V70.9845H216.049V74.598H203.667V83.1477H217.126V86.7749H199.454ZM240.126 66.1847C239.98 64.8938 239.38 63.8938 238.326 63.1848C237.271 62.4666 235.944 62.1075 234.344 62.1075C233.199 62.1075 232.208 62.2893 231.372 62.653C230.535 63.0075 229.885 63.4984 229.422 64.1257C228.967 64.7438 228.74 65.4483 228.74 66.2392C228.74 66.9028 228.894 67.4755 229.203 67.9573C229.522 68.4391 229.935 68.8437 230.444 69.1709C230.963 69.4891 231.517 69.7573 232.108 69.9755C232.699 70.1845 233.267 70.3573 233.812 70.4936L236.54 71.2027C237.43 71.4209 238.344 71.7163 239.28 72.089C240.217 72.4617 241.085 72.9526 241.885 73.5617C242.685 74.1708 243.33 74.9253 243.821 75.8253C244.321 76.7252 244.571 77.8025 244.571 79.057C244.571 80.6387 244.162 82.0432 243.344 83.2705C242.535 84.4977 241.358 85.4659 239.812 86.1749C238.276 86.884 236.417 87.2385 234.235 87.2385C232.144 87.2385 230.335 86.9067 228.808 86.2431C227.281 85.5795 226.085 84.6386 225.222 83.4205C224.358 82.1932 223.881 80.7387 223.79 79.057H228.017C228.099 80.066 228.426 80.9069 228.999 81.5796C229.581 82.2432 230.322 82.7387 231.222 83.0659C232.131 83.3841 233.126 83.5432 234.208 83.5432C235.399 83.5432 236.458 83.3568 237.385 82.9841C238.321 82.6023 239.058 82.0751 239.594 81.4024C240.13 80.7206 240.399 79.9251 240.399 79.0161C240.399 78.1888 240.162 77.5116 239.69 76.9843C239.226 76.4571 238.594 76.0207 237.794 75.6753C237.003 75.3298 236.108 75.0253 235.108 74.7617L231.808 73.8617C229.572 73.2526 227.799 72.3572 226.49 71.1754C225.19 69.9936 224.54 68.4301 224.54 66.4847C224.54 64.8756 224.976 63.4711 225.849 62.2712C226.722 61.0712 227.904 60.1394 229.394 59.4758C230.885 58.8031 232.567 58.4667 234.44 58.4667C236.331 58.4667 237.999 58.7986 239.444 59.4622C240.899 60.1258 242.044 61.0394 242.88 62.203C243.717 63.3575 244.153 64.6847 244.189 66.1847H240.126ZM250.533 62.4757V58.8486H272.146V62.4757H263.432V86.7749H259.233V62.4757H250.533ZM291.692 86.7749V58.8486H301.646C303.81 58.8486 305.605 59.2213 307.032 59.9667C308.469 60.7121 309.541 61.7439 310.25 63.062C310.959 64.3711 311.314 65.8847 311.314 67.6028C311.314 69.3118 310.955 70.8163 310.237 72.1163C309.528 73.4072 308.455 74.4117 307.019 75.1298C305.591 75.848 303.796 76.2071 301.632 76.2071H294.092V72.5799H301.251C302.614 72.5799 303.723 72.3845 304.578 71.9936C305.441 71.6027 306.073 71.0345 306.473 70.2891C306.873 69.5437 307.073 68.6482 307.073 67.6028C307.073 66.5483 306.869 65.6347 306.46 64.862C306.06 64.0893 305.428 63.4984 304.564 63.0893C303.71 62.6712 302.587 62.4621 301.196 62.4621H295.905V86.7749H291.692ZM305.478 74.1753L312.378 86.7749H307.578L300.814 74.1753H305.478ZM343.003 72.8117C343.003 75.7934 342.458 78.357 341.367 80.5024C340.276 82.6387 338.781 84.2841 336.881 85.4386C334.99 86.584 332.84 87.1567 330.431 87.1567C328.013 87.1567 325.854 86.584 323.954 85.4386C322.063 84.2841 320.572 82.6341 319.481 80.4887C318.39 78.3434 317.845 75.7844 317.845 72.8117C317.845 69.83 318.39 67.271 319.481 65.1347C320.572 62.9893 322.063 61.3439 323.954 60.1985C325.854 59.044 328.013 58.4667 330.431 58.4667C332.84 58.4667 334.99 59.044 336.881 60.1985C338.781 61.3439 340.276 62.9893 341.367 65.1347C342.458 67.271 343.003 69.83 343.003 72.8117ZM338.831 72.8117C338.831 70.5391 338.462 68.6255 337.726 67.071C336.999 65.5074 335.999 64.3256 334.726 63.5257C333.463 62.7166 332.031 62.3121 330.431 62.3121C328.822 62.3121 327.386 62.7166 326.122 63.5257C324.858 64.3256 323.858 65.5074 323.122 67.071C322.395 68.6255 322.031 70.5391 322.031 72.8117C322.031 75.0844 322.395 77.0025 323.122 78.5661C323.858 80.1206 324.858 81.3024 326.122 82.1114C327.386 82.9114 328.822 83.3114 330.431 83.3114C332.031 83.3114 333.463 82.9114 334.726 82.1114C335.999 81.3024 336.999 80.1206 337.726 78.5661C338.462 77.0025 338.831 75.0844 338.831 72.8117ZM374.819 72.8117C374.819 75.7934 374.273 78.357 373.182 80.5024C372.091 82.6387 370.596 84.2841 368.696 85.4386C366.805 86.584 364.655 87.1567 362.246 87.1567C359.828 87.1567 357.669 86.584 355.769 85.4386C353.878 84.2841 352.388 82.6341 351.297 80.4887C350.206 78.3434 349.66 75.7844 349.66 72.8117C349.66 69.83 350.206 67.271 351.297 65.1347C352.388 62.9893 353.878 61.3439 355.769 60.1985C357.669 59.044 359.828 58.4667 362.246 58.4667C364.655 58.4667 366.805 59.044 368.696 60.1985C370.596 61.3439 372.091 62.9893 373.182 65.1347C374.273 67.271 374.819 69.83 374.819 72.8117ZM370.646 72.8117C370.646 70.5391 370.278 68.6255 369.542 67.071C368.814 65.5074 367.814 64.3256 366.542 63.5257C365.278 62.7166 363.846 62.3121 362.246 62.3121C360.637 62.3121 359.201 62.7166 357.937 63.5257C356.674 64.3256 355.674 65.5074 354.938 67.071C354.21 68.6255 353.847 70.5391 353.847 72.8117C353.847 75.0844 354.21 77.0025 354.938 78.5661C355.674 80.1206 356.674 81.3024 357.937 82.1114C359.201 82.9114 360.637 83.3114 362.246 83.3114C363.846 83.3114 365.278 82.9114 366.542 82.1114C367.814 81.3024 368.814 80.1206 369.542 78.5661C370.278 77.0025 370.646 75.0844 370.646 72.8117ZM382.376 58.8486H387.489L396.38 80.5569H396.707L405.598 58.8486H410.711V86.7749H406.702V66.5665H406.443L398.207 86.734H394.88L386.644 66.5528H386.385V86.7749H382.376V58.8486ZM434.372 66.1847C434.227 64.8938 433.627 63.8938 432.572 63.1848C431.518 62.4666 430.191 62.1075 428.591 62.1075C427.445 62.1075 426.455 62.2893 425.618 62.653C424.782 63.0075 424.132 63.4984 423.668 64.1257C423.214 64.7438 422.986 65.4483 422.986 66.2392C422.986 66.9028 423.141 67.4755 423.45 67.9573C423.768 68.4391 424.182 68.8437 424.691 69.1709C425.209 69.4891 425.764 69.7573 426.355 69.9755C426.945 70.1845 427.514 70.3573 428.059 70.4936L430.786 71.2027C431.677 71.4209 432.591 71.7163 433.527 72.089C434.463 72.4617 435.331 72.9526 436.131 73.5617C436.931 74.1708 437.577 74.9253 438.068 75.8253C438.568 76.7252 438.818 77.8025 438.818 79.057C438.818 80.6387 438.409 82.0432 437.59 83.2705C436.781 84.4977 435.604 85.4659 434.059 86.1749C432.522 86.884 430.663 87.2385 428.482 87.2385C426.391 87.2385 424.582 86.9067 423.055 86.2431C421.527 85.5795 420.332 84.6386 419.468 83.4205C418.605 82.1932 418.128 80.7387 418.037 79.057H422.264C422.346 80.066 422.673 80.9069 423.246 81.5796C423.827 82.2432 424.568 82.7387 425.468 83.0659C426.377 83.3841 427.373 83.5432 428.454 83.5432C429.645 83.5432 430.704 83.3568 431.632 82.9841C432.568 82.6023 433.304 82.0751 433.841 81.4024C434.377 80.7206 434.645 79.9251 434.645 79.0161C434.645 78.1888 434.409 77.5116 433.936 76.9843C433.472 76.4571 432.841 76.0207 432.041 75.6753C431.25 75.3298 430.354 75.0253 429.354 74.7617L426.055 73.8617C423.818 73.2526 422.046 72.3572 420.737 71.1754C419.437 69.9936 418.787 68.4301 418.787 66.4847C418.787 64.8756 419.223 63.4711 420.096 62.2712C420.968 61.0712 422.15 60.1394 423.641 59.4758C425.132 58.8031 426.814 58.4667 428.686 58.4667C430.577 58.4667 432.245 58.7986 433.691 59.4622C435.145 60.1258 436.291 61.0394 437.127 62.203C437.963 63.3575 438.4 64.6847 438.436 66.1847H434.372Z" fill="black"/>
<path d="M143.737 94.3092H145.09V100.187C145.09 100.812 144.943 101.366 144.649 101.849C144.355 102.329 143.942 102.707 143.41 102.984C142.878 103.257 142.254 103.394 141.538 103.394C140.825 103.394 140.203 103.257 139.671 102.984C139.138 102.707 138.725 102.329 138.431 101.849C138.137 101.366 137.991 100.812 137.991 100.187V94.3092H139.339V100.078C139.339 100.482 139.428 100.841 139.605 101.155C139.785 101.47 140.04 101.717 140.369 101.897C140.697 102.075 141.087 102.163 141.538 102.163C141.992 102.163 142.383 102.075 142.712 101.897C143.043 101.717 143.297 101.47 143.471 101.155C143.649 100.841 143.737 100.482 143.737 100.078V94.3092ZM152.815 100.972L152.806 99.3796H153.033L155.703 96.5433H157.266L154.22 99.7723H154.015L152.815 100.972ZM151.615 103.246V94.3092H152.92V103.246H151.615ZM155.847 103.246L153.448 100.06L154.346 99.1483L157.449 103.246H155.847ZM163.124 103.246V96.5433H164.385V97.608H164.455C164.577 97.2473 164.792 96.9636 165.101 96.7571C165.412 96.5476 165.764 96.4429 166.157 96.4429C166.238 96.4429 166.334 96.4458 166.445 96.4516C166.558 96.4575 166.647 96.4647 166.711 96.4735V97.7214C166.658 97.7069 166.565 97.6909 166.431 97.6734C166.298 97.6531 166.164 97.6429 166.03 97.6429C165.722 97.6429 165.447 97.7083 165.205 97.8392C164.967 97.9672 164.778 98.1461 164.638 98.3759C164.498 98.6028 164.429 98.8618 164.429 99.1526V103.246H163.124ZM174.4 103.394C173.975 103.394 173.591 103.315 173.248 103.158C172.904 102.998 172.632 102.767 172.432 102.465C172.234 102.162 172.135 101.791 172.135 101.352C172.135 100.974 172.208 100.662 172.353 100.418C172.498 100.174 172.695 99.9803 172.942 99.8377C173.189 99.6952 173.466 99.5875 173.771 99.5148C174.077 99.4421 174.388 99.3868 174.705 99.349C175.106 99.3025 175.432 99.2646 175.682 99.2356C175.933 99.2036 176.114 99.1526 176.228 99.0828C176.341 99.013 176.398 98.8996 176.398 98.7425V98.7119C176.398 98.3309 176.29 98.0356 176.075 97.8261C175.863 97.6167 175.546 97.512 175.124 97.512C174.685 97.512 174.338 97.6094 174.085 97.8043C173.835 97.9963 173.662 98.2101 173.566 98.4458L172.34 98.1665C172.485 97.7592 172.698 97.4305 172.977 97.1804C173.259 96.9273 173.584 96.744 173.95 96.6306C174.317 96.5142 174.702 96.456 175.106 96.456C175.374 96.456 175.658 96.488 175.957 96.552C176.26 96.6131 176.542 96.7265 176.804 96.8924C177.069 97.0582 177.285 97.2953 177.454 97.6036C177.623 97.9091 177.707 98.3061 177.707 98.7948V103.246H176.433V102.329H176.381C176.296 102.498 176.17 102.664 176.001 102.827C175.832 102.99 175.615 103.125 175.351 103.233C175.086 103.34 174.769 103.394 174.4 103.394ZM174.683 102.347C175.044 102.347 175.352 102.275 175.608 102.133C175.867 101.99 176.063 101.804 176.197 101.574C176.334 101.342 176.402 101.093 176.402 100.828V99.9643C176.356 100.011 176.266 100.054 176.132 100.095C176.001 100.133 175.851 100.166 175.682 100.196C175.514 100.222 175.349 100.246 175.189 100.27C175.029 100.29 174.895 100.308 174.788 100.322C174.535 100.354 174.304 100.408 174.094 100.484C173.888 100.559 173.722 100.668 173.597 100.811C173.474 100.95 173.413 101.137 173.413 101.369C173.413 101.692 173.533 101.937 173.771 102.102C174.01 102.265 174.314 102.347 174.683 102.347ZM184.114 103.246V96.5433H185.419V103.246H184.114ZM184.773 95.5091C184.546 95.5091 184.351 95.4335 184.188 95.2822C184.028 95.1281 183.948 94.9448 183.948 94.7324C183.948 94.5172 184.028 94.3339 184.188 94.1826C184.351 94.0285 184.546 93.9514 184.773 93.9514C185 93.9514 185.193 94.0285 185.353 94.1826C185.516 94.3339 185.598 94.5172 185.598 94.7324C185.598 94.9448 185.516 95.1281 185.353 95.2822C185.193 95.4335 185 95.5091 184.773 95.5091ZM193.148 99.2661V103.246H191.843V96.5433H193.096V97.6342H193.178C193.333 97.2793 193.574 96.9942 193.903 96.7789C194.234 96.5636 194.652 96.456 195.155 96.456C195.612 96.456 196.012 96.552 196.355 96.744C196.698 96.9331 196.965 97.2153 197.154 97.5905C197.343 97.9658 197.437 98.4298 197.437 98.9825V103.246H196.133V99.1396C196.133 98.6538 196.006 98.2741 195.753 98.0007C195.5 97.7243 195.152 97.5862 194.71 97.5862C194.408 97.5862 194.138 97.6516 193.903 97.7825C193.67 97.9134 193.485 98.1054 193.349 98.3585C193.215 98.6087 193.148 98.9112 193.148 99.2661ZM203.856 103.246V96.5433H205.161V103.246H203.856ZM204.515 95.5091C204.288 95.5091 204.093 95.4335 203.93 95.2822C203.77 95.1281 203.69 94.9448 203.69 94.7324C203.69 94.5172 203.77 94.3339 203.93 94.1826C204.093 94.0285 204.288 93.9514 204.515 93.9514C204.742 93.9514 204.936 94.0285 205.096 94.1826C205.258 94.3339 205.34 94.5172 205.34 94.7324C205.34 94.9448 205.258 95.1281 205.096 95.2822C204.936 95.4335 204.742 95.5091 204.515 95.5091ZM213.536 103.394C213.111 103.394 212.727 103.315 212.384 103.158C212.041 102.998 211.769 102.767 211.568 102.465C211.37 102.162 211.271 101.791 211.271 101.352C211.271 100.974 211.344 100.662 211.49 100.418C211.635 100.174 211.831 99.9803 212.079 99.8377C212.326 99.6952 212.602 99.5875 212.908 99.5148C213.213 99.4421 213.524 99.3868 213.841 99.349C214.243 99.3025 214.569 99.2646 214.819 99.2356C215.069 99.2036 215.251 99.1526 215.364 99.0828C215.478 99.013 215.534 98.8996 215.534 98.7425V98.7119C215.534 98.3309 215.427 98.0356 215.212 97.8261C214.999 97.6167 214.682 97.512 214.26 97.512C213.821 97.512 213.475 97.6094 213.222 97.8043C212.972 97.9963 212.799 98.2101 212.703 98.4458L211.476 98.1665C211.622 97.7592 211.834 97.4305 212.113 97.1804C212.396 96.9273 212.72 96.744 213.087 96.6306C213.453 96.5142 213.839 96.456 214.243 96.456C214.51 96.456 214.794 96.488 215.094 96.552C215.396 96.6131 215.678 96.7265 215.94 96.8924C216.205 97.0582 216.422 97.2953 216.59 97.6036C216.759 97.9091 216.844 98.3061 216.844 98.7948V103.246H215.569V102.329H215.517C215.433 102.498 215.306 102.664 215.137 102.827C214.969 102.99 214.752 103.125 214.487 103.233C214.223 103.34 213.905 103.394 213.536 103.394ZM213.82 102.347C214.18 102.347 214.489 102.275 214.745 102.133C215.004 101.99 215.2 101.804 215.334 101.574C215.47 101.342 215.539 101.093 215.539 100.828V99.9643C215.492 100.011 215.402 100.054 215.268 100.095C215.137 100.133 214.988 100.166 214.819 100.196C214.65 100.222 214.486 100.246 214.326 100.27C214.166 100.29 214.032 100.308 213.924 100.322C213.671 100.354 213.44 100.408 213.231 100.484C213.024 100.559 212.858 100.668 212.733 100.811C212.611 100.95 212.55 101.137 212.55 101.369C212.55 101.692 212.669 101.937 212.908 102.102C213.146 102.265 213.45 102.347 213.82 102.347ZM224.555 99.2661V103.246H223.251V96.5433H224.503V97.6342H224.586C224.74 97.2793 224.981 96.9942 225.31 96.7789C225.642 96.5636 226.059 96.456 226.562 96.456C227.019 96.456 227.419 96.552 227.762 96.744C228.106 96.9331 228.372 97.2153 228.561 97.5905C228.75 97.9658 228.845 98.4298 228.845 98.9825V103.246H227.54V99.1396C227.54 98.6538 227.413 98.2741 227.16 98.0007C226.907 97.7243 226.56 97.5862 226.117 97.5862C225.815 97.5862 225.546 97.6516 225.31 97.7825C225.077 97.9134 224.893 98.1054 224.756 98.3585C224.622 98.6087 224.555 98.9112 224.555 99.2661ZM250.712 97.2153H249.35C249.298 96.9244 249.201 96.6684 249.058 96.4473C248.915 96.2262 248.741 96.0386 248.534 95.8844C248.328 95.7302 248.097 95.6139 247.841 95.5353C247.588 95.4568 247.318 95.4175 247.033 95.4175C246.518 95.4175 246.057 95.547 245.65 95.8059C245.246 96.0648 244.926 96.4444 244.69 96.9447C244.457 97.4451 244.341 98.056 244.341 98.7774C244.341 99.5046 244.457 100.118 244.69 100.619C244.926 101.119 245.247 101.497 245.655 101.753C246.062 102.009 246.52 102.137 247.029 102.137C247.311 102.137 247.579 102.099 247.832 102.024C248.088 101.945 248.319 101.83 248.526 101.679C248.732 101.528 248.907 101.343 249.049 101.125C249.195 100.904 249.295 100.651 249.35 100.366L250.712 100.37C250.639 100.809 250.498 101.214 250.289 101.583C250.082 101.95 249.816 102.267 249.49 102.534C249.167 102.799 248.798 103.004 248.382 103.15C247.966 103.295 247.512 103.368 247.02 103.368C246.246 103.368 245.557 103.185 244.952 102.818C244.347 102.449 243.87 101.921 243.521 101.234C243.175 100.548 243.002 99.7286 243.002 98.7774C243.002 97.8232 243.176 97.0044 243.525 96.3207C243.874 95.6342 244.351 95.1077 244.956 94.7412C245.561 94.3717 246.249 94.187 247.02 94.187C247.494 94.187 247.937 94.2554 248.347 94.3921C248.76 94.5259 249.131 94.7237 249.459 94.9855C249.788 95.2444 250.06 95.5615 250.275 95.9368C250.491 96.3091 250.636 96.7353 250.712 97.2153ZM258.84 103.394C258.416 103.394 258.032 103.315 257.688 103.158C257.345 102.998 257.073 102.767 256.872 102.465C256.674 102.162 256.576 101.791 256.576 101.352C256.576 100.974 256.648 100.662 256.794 100.418C256.939 100.174 257.136 99.9803 257.383 99.8377C257.63 99.6952 257.906 99.5875 258.212 99.5148C258.517 99.4421 258.829 99.3868 259.146 99.349C259.547 99.3025 259.873 99.2646 260.123 99.2356C260.373 99.2036 260.555 99.1526 260.669 99.0828C260.782 99.013 260.839 98.8996 260.839 98.7425V98.7119C260.839 98.3309 260.731 98.0356 260.516 97.8261C260.303 97.6167 259.986 97.512 259.565 97.512C259.125 97.512 258.779 97.6094 258.526 97.8043C258.276 97.9963 258.103 98.2101 258.007 98.4458L256.781 98.1665C256.926 97.7592 257.138 97.4305 257.418 97.1804C257.7 96.9273 258.024 96.744 258.391 96.6306C258.757 96.5142 259.143 96.456 259.547 96.456C259.815 96.456 260.098 96.488 260.398 96.552C260.701 96.6131 260.983 96.7265 261.245 96.8924C261.509 97.0582 261.726 97.2953 261.895 97.6036C262.063 97.9091 262.148 98.3061 262.148 98.7948V103.246H260.874V102.329H260.821C260.737 102.498 260.61 102.664 260.442 102.827C260.273 102.99 260.056 103.125 259.791 103.233C259.527 103.34 259.21 103.394 258.84 103.394ZM259.124 102.347C259.485 102.347 259.793 102.275 260.049 102.133C260.308 101.99 260.504 101.804 260.638 101.574C260.775 101.342 260.843 101.093 260.843 100.828V99.9643C260.797 100.011 260.706 100.054 260.573 100.095C260.442 100.133 260.292 100.166 260.123 100.196C259.954 100.222 259.79 100.246 259.63 100.27C259.47 100.29 259.336 100.308 259.229 100.322C258.976 100.354 258.744 100.408 258.535 100.484C258.328 100.559 258.162 100.668 258.037 100.811C257.915 100.95 257.854 101.137 257.854 101.369C257.854 101.692 257.973 101.937 258.212 102.102C258.45 102.265 258.754 102.347 259.124 102.347ZM271.683 96.5433V97.5905H268.022V96.5433H271.683ZM269.004 94.9375H270.309V101.278C270.309 101.531 270.347 101.721 270.422 101.849C270.498 101.974 270.595 102.06 270.715 102.107C270.837 102.15 270.969 102.172 271.112 102.172C271.217 102.172 271.308 102.165 271.387 102.15C271.465 102.136 271.526 102.124 271.57 102.115L271.806 103.193C271.73 103.222 271.622 103.251 271.483 103.281C271.343 103.313 271.169 103.33 270.959 103.333C270.616 103.339 270.296 103.278 269.999 103.15C269.702 103.022 269.462 102.824 269.279 102.556C269.096 102.289 269.004 101.953 269.004 101.548V94.9375ZM279.245 99.2661V103.246H277.94V94.3092H279.227V97.6342H279.31C279.467 97.2734 279.707 96.9869 280.03 96.7745C280.353 96.5622 280.775 96.456 281.295 96.456C281.755 96.456 282.157 96.5506 282.5 96.7396C282.846 96.9287 283.114 97.2109 283.303 97.5862C283.495 97.9585 283.591 98.4239 283.591 98.9825V103.246H282.286V99.1396C282.286 98.6479 282.159 98.2669 281.906 97.9963C281.653 97.7229 281.301 97.5862 280.85 97.5862C280.542 97.5862 280.266 97.6516 280.021 97.7825C279.78 97.9134 279.589 98.1054 279.45 98.3585C279.313 98.6087 279.245 98.9112 279.245 99.2661ZM292.824 103.381C292.196 103.381 291.647 103.237 291.179 102.949C290.711 102.661 290.347 102.258 290.088 101.74C289.829 101.222 289.7 100.617 289.7 99.925C289.7 99.2297 289.829 98.6218 290.088 98.101C290.347 97.5803 290.711 97.176 291.179 96.888C291.647 96.6 292.196 96.456 292.824 96.456C293.453 96.456 294.001 96.6 294.469 96.888C294.938 97.176 295.301 97.5803 295.56 98.101C295.819 98.6218 295.948 99.2297 295.948 99.925C295.948 100.617 295.819 101.222 295.56 101.74C295.301 102.258 294.938 102.661 294.469 102.949C294.001 103.237 293.453 103.381 292.824 103.381ZM292.829 102.286C293.236 102.286 293.573 102.178 293.841 101.963C294.108 101.747 294.306 101.461 294.434 101.103C294.565 100.745 294.631 100.351 294.631 99.9206C294.631 99.493 294.565 99.1003 294.434 98.7425C294.306 98.3818 294.108 98.0923 293.841 97.8741C293.573 97.656 293.236 97.5469 292.829 97.5469C292.418 97.5469 292.078 97.656 291.807 97.8741C291.54 98.0923 291.341 98.3818 291.21 98.7425C291.082 99.1003 291.018 99.493 291.018 99.9206C291.018 100.351 291.082 100.745 291.21 101.103C291.341 101.461 291.54 101.747 291.807 101.963C292.078 102.178 292.418 102.286 292.829 102.286ZM303.379 94.3092V103.246H302.074V94.3092H303.379ZM309.803 103.246V96.5433H311.108V103.246H309.803ZM310.462 95.5091C310.235 95.5091 310.04 95.4335 309.877 95.2822C309.717 95.1281 309.637 94.9448 309.637 94.7324C309.637 94.5172 309.717 94.3339 309.877 94.1826C310.04 94.0285 310.235 93.9514 310.462 93.9514C310.689 93.9514 310.882 94.0285 311.042 94.1826C311.205 94.3339 311.287 94.5172 311.287 94.7324C311.287 94.9448 311.205 95.1281 311.042 95.2822C310.882 95.4335 310.689 95.5091 310.462 95.5091ZM320.356 103.381C319.707 103.381 319.148 103.234 318.68 102.94C318.215 102.643 317.857 102.235 317.607 101.714C317.356 101.193 317.231 100.597 317.231 99.925C317.231 99.2443 317.359 98.6436 317.615 98.1229C317.871 97.5992 318.232 97.1905 318.697 96.8967C319.163 96.6029 319.711 96.456 320.342 96.456C320.852 96.456 321.305 96.5506 321.704 96.7396C322.102 96.9258 322.424 97.1876 322.668 97.5251C322.915 97.8625 323.062 98.2567 323.109 98.7076H321.839C321.769 98.3934 321.609 98.1229 321.359 97.896C321.112 97.6691 320.78 97.5556 320.364 97.5556C320.001 97.5556 319.682 97.6516 319.409 97.8436C319.138 98.0327 318.927 98.3032 318.776 98.6552C318.625 99.0043 318.549 99.4174 318.549 99.8944C318.549 100.383 318.623 100.805 318.772 101.16C318.92 101.515 319.129 101.79 319.4 101.985C319.673 102.179 319.995 102.277 320.364 102.277C320.612 102.277 320.836 102.232 321.036 102.142C321.24 102.049 321.41 101.916 321.547 101.745C321.686 101.573 321.784 101.366 321.839 101.125H323.109C323.062 101.558 322.921 101.945 322.686 102.286C322.45 102.626 322.134 102.894 321.739 103.089C321.346 103.283 320.885 103.381 320.356 103.381ZM342.946 94.3092H344.299V100.187C344.299 100.812 344.152 101.366 343.858 101.849C343.564 102.329 343.151 102.707 342.619 102.984C342.086 103.257 341.462 103.394 340.747 103.394C340.034 103.394 339.412 103.257 338.879 102.984C338.347 102.707 337.934 102.329 337.64 101.849C337.346 101.366 337.199 100.812 337.199 100.187V94.3092H338.548V100.078C338.548 100.482 338.636 100.841 338.814 101.155C338.994 101.47 339.249 101.717 339.577 101.897C339.906 102.075 340.296 102.163 340.747 102.163C341.201 102.163 341.592 102.075 341.921 101.897C342.252 101.717 342.505 101.47 342.68 101.155C342.857 100.841 342.946 100.482 342.946 100.078V94.3092ZM352.128 99.2661V103.246H350.824V96.5433H352.076V97.6342H352.159C352.313 97.2793 352.554 96.9942 352.883 96.7789C353.215 96.5636 353.632 96.456 354.136 96.456C354.592 96.456 354.992 96.552 355.335 96.744C355.679 96.9331 355.945 97.2153 356.134 97.5905C356.323 97.9658 356.418 98.4298 356.418 98.9825V103.246H355.113V99.1396C355.113 98.6538 354.986 98.2741 354.733 98.0007C354.48 97.7243 354.133 97.5862 353.69 97.5862C353.388 97.5862 353.119 97.6516 352.883 97.7825C352.65 97.9134 352.466 98.1054 352.329 98.3585C352.195 98.6087 352.128 98.9112 352.128 99.2661ZM362.837 103.246V96.5433H364.141V103.246H362.837ZM363.496 95.5091C363.269 95.5091 363.074 95.4335 362.911 95.2822C362.751 95.1281 362.671 94.9448 362.671 94.7324C362.671 94.5172 362.751 94.3339 362.911 94.1826C363.074 94.0285 363.269 93.9514 363.496 93.9514C363.722 93.9514 363.916 94.0285 364.076 94.1826C364.239 94.3339 364.32 94.5172 364.32 94.7324C364.32 94.9448 364.239 95.1281 364.076 95.2822C363.916 95.4335 363.722 95.5091 363.496 95.5091ZM376.299 96.5433L373.869 103.246H372.473L370.038 96.5433H371.439L373.136 101.701H373.206L374.899 96.5433H376.299ZM384.856 103.381C384.195 103.381 383.626 103.24 383.149 102.958C382.675 102.673 382.309 102.273 382.05 101.758C381.794 101.24 381.666 100.633 381.666 99.9381C381.666 99.2516 381.794 98.6465 382.05 98.1229C382.309 97.5992 382.669 97.1905 383.132 96.8967C383.597 96.6029 384.141 96.456 384.764 96.456C385.142 96.456 385.509 96.5186 385.864 96.6436C386.218 96.7687 386.537 96.9651 386.819 97.2327C387.101 97.5003 387.324 97.848 387.487 98.2756C387.65 98.7003 387.731 99.2166 387.731 99.8246V100.287H382.403V99.3097H386.453C386.453 98.9665 386.383 98.6625 386.243 98.3978C386.103 98.1301 385.907 97.9192 385.654 97.7651C385.404 97.6109 385.11 97.5338 384.773 97.5338C384.406 97.5338 384.086 97.624 383.813 97.8043C383.542 97.9818 383.333 98.2145 383.184 98.5025C383.039 98.7876 382.966 99.0974 382.966 99.4319V100.196C382.966 100.644 383.045 101.025 383.202 101.339C383.362 101.653 383.584 101.893 383.869 102.059C384.154 102.222 384.488 102.303 384.869 102.303C385.116 102.303 385.341 102.268 385.545 102.198C385.749 102.126 385.925 102.018 386.073 101.875C386.221 101.733 386.335 101.557 386.413 101.347L387.648 101.57C387.549 101.934 387.372 102.252 387.116 102.526C386.863 102.796 386.544 103.007 386.16 103.158C385.779 103.307 385.344 103.381 384.856 103.381ZM393.848 103.246V96.5433H395.109V97.608H395.179C395.301 97.2473 395.516 96.9636 395.825 96.7571C396.136 96.5476 396.488 96.4429 396.881 96.4429C396.962 96.4429 397.058 96.4458 397.169 96.4516C397.282 96.4575 397.371 96.4647 397.435 96.4735V97.7214C397.382 97.7069 397.289 97.6909 397.155 97.6734C397.022 97.6531 396.888 97.6429 396.754 97.6429C396.446 97.6429 396.171 97.7083 395.929 97.8392C395.691 97.9672 395.502 98.1461 395.362 98.3759C395.222 98.6028 395.153 98.8618 395.153 99.1526V103.246H393.848ZM408.255 98.1796L407.073 98.389C407.024 98.2378 406.945 98.0938 406.837 97.9571C406.733 97.8203 406.59 97.7083 406.41 97.6211C406.229 97.5338 406.004 97.4902 405.733 97.4902C405.364 97.4902 405.056 97.5731 404.808 97.7389C404.561 97.9018 404.437 98.1127 404.437 98.3716C404.437 98.5956 404.52 98.7759 404.686 98.9127C404.852 99.0494 405.12 99.1614 405.489 99.2486L406.554 99.493C407.17 99.6355 407.63 99.8552 407.933 100.152C408.235 100.449 408.386 100.834 408.386 101.308C408.386 101.71 408.27 102.067 408.037 102.382C407.807 102.693 407.486 102.937 407.073 103.115C406.663 103.292 406.187 103.381 405.646 103.381C404.896 103.381 404.283 103.221 403.809 102.901C403.335 102.578 403.044 102.12 402.936 101.526L404.197 101.334C404.276 101.663 404.437 101.912 404.682 102.081C404.926 102.246 405.245 102.329 405.637 102.329C406.065 102.329 406.407 102.241 406.663 102.063C406.919 101.883 407.047 101.663 407.047 101.404C407.047 101.195 406.968 101.019 406.811 100.876C406.657 100.734 406.42 100.626 406.1 100.553L404.965 100.305C404.34 100.162 403.877 99.9352 403.578 99.6239C403.281 99.3126 403.133 98.9185 403.133 98.4414C403.133 98.0458 403.243 97.6996 403.464 97.4029C403.685 97.1062 403.991 96.8749 404.381 96.7091C404.77 96.5404 405.217 96.456 405.72 96.456C406.445 96.456 407.015 96.6131 407.431 96.9273C407.847 97.2385 408.122 97.656 408.255 98.1796ZM414.49 103.246V96.5433H415.795V103.246H414.49ZM415.149 95.5091C414.922 95.5091 414.727 95.4335 414.564 95.2822C414.404 95.1281 414.324 94.9448 414.324 94.7324C414.324 94.5172 414.404 94.3339 414.564 94.1826C414.727 94.0285 414.922 93.9514 415.149 93.9514C415.376 93.9514 415.569 94.0285 415.729 94.1826C415.892 94.3339 415.974 94.5172 415.974 94.7324C415.974 94.9448 415.892 95.1281 415.729 95.2822C415.569 95.4335 415.376 95.5091 415.149 95.5091ZM425.348 96.5433V97.5905H421.687V96.5433H425.348ZM422.669 94.9375H423.973V101.278C423.973 101.531 424.011 101.721 424.087 101.849C424.163 101.974 424.26 102.06 424.379 102.107C424.501 102.15 424.634 102.172 424.776 102.172C424.881 102.172 424.973 102.165 425.051 102.15C425.13 102.136 425.191 102.124 425.235 102.115L425.47 103.193C425.395 103.222 425.287 103.251 425.147 103.281C425.008 103.313 424.833 103.33 424.624 103.333C424.28 103.339 423.96 103.278 423.664 103.15C423.367 103.022 423.127 102.824 422.944 102.556C422.76 102.289 422.669 101.953 422.669 101.548V94.9375ZM432.285 105.759C432.09 105.759 431.913 105.743 431.753 105.711C431.593 105.682 431.474 105.65 431.395 105.615L431.709 104.546C431.948 104.61 432.16 104.638 432.346 104.629C432.532 104.62 432.697 104.55 432.839 104.419C432.985 104.288 433.113 104.075 433.223 103.778L433.385 103.333L430.932 96.5433H432.329L434.026 101.745H434.096L435.793 96.5433H437.194L434.432 104.14C434.304 104.489 434.141 104.784 433.943 105.026C433.745 105.27 433.51 105.454 433.236 105.576C432.963 105.698 432.646 105.759 432.285 105.759Z" fill="black"/>
</svg>
